#N canvas 1021 161 713 657 12;
#N canvas 547 61 844 813 ESCALAS 0;
#X msg 122 217 0 2 4 5 7 9 11;
#X msg 122 367 0 1 4 5 7 8 11;
#X msg 122 397 0 2 4 6 7 9 10;
#X msg 122 247 0 2 3 5 7 8 11;
#X msg 122 187 0 2 4 6 8 10;
#X msg 122 427 0 2 3 5 6 8 9 11;
#X text 364 366 middle-east-like minor;
#X text 363 396 lydian-dominant (jazzy);
#X text 363 246 harmonic minor;
#X msg 122 157 0 2 3 4 5 6 7 9 10 11;
#X text 363 156 chromatic blues;
#X floatatom 586 178 5 0 0 0 - - - 0;
#X obj 586 162 hradio 15 1 0 12 empty empty empty 0 -8 0 10 #fcfcfc #000000 #000000 0;
#X floatatom 586 229 5 0 0 0 - - - 0;
#X obj 667 230 bng 15 250 50 0 empty empty empty 17 7 0 10 #fcfcfc #000000 #000000;
#X floatatom 626 229 5 0 0 0 - - - 0;
#X text 362 516 japanese;
#X text 363 546 balinese;
#N canvas 7 111 329 303 listmaker 0;
#X obj 48 107 list prepend;
#X obj 48 133 list;
#X obj 48 160 list prepend set;
#X obj 48 186 list trim;
#X obj 48 42 inlet;
#X obj 48 240 outlet;
#X obj 48 74 + 0;
#X obj 98 42 inlet offset;
#X obj 208 42 inlet reset;
#X obj 208 67 t b b;
#X msg 245 92 set;
#X connect 0 0 1 0;
#X connect 1 0 0 1;
#X connect 1 0 2 0;
#X connect 2 0 3 0;
#X connect 3 0 5 0;
#X connect 4 0 6 0;
#X connect 6 0 0 0;
#X connect 7 0 6 1;
#X connect 8 0 9 0;
#X connect 9 0 0 1;
#X connect 9 1 10 0;
#X connect 10 0 5 0;
#X restore 586 249 pd listmaker;
#X msg 122 277 0 2 4 7 9;
#X msg 122 517 0 4 5 7 11;
#X msg 122 547 0 1 3 7 8;
#X msg 122 127 0 1 2 3 4 5 6 7 8 9 10 11;
#X text 363 126 chromatic;
#X text 363 216 harmonic major;
#X msg 122 307 0 3 5 7 10;
#X msg 122 337 0 3 5 6 10;
#X text 364 336 pentatonic blues 1;
#X msg 122 457 0 1 4 5 7 8 10;
#X text 363 426 diminished;
#X text 363 456 arabic;
#X text 364 186 whole-tones;
#X msg 122 487 0 1 4 5 7 8 9;
#X text 363 486 gypsy hexatonic;
#X text 364 276 major pentatonic;
#X text 364 306 minor pentatonic;
#N canvas 0 50 450 250 (subpatch) 0;
#X array \$0-scale 7 float 2;
#X coords 0 11 7 0 200 140 1 0 0;
#X restore 576 380 graph;
#X obj 586 198 tabread \$0-scale;
#X obj 122 709 s \$0-scale;
#X msg 586 290;
#X obj 122 667 list prepend 0;
#X obj 122 646 t l l;
#X obj 272 666 list length;
#X obj 272 729 s \$0-scale;
#X msg 272 708 resize \$1;
#X obj 357 729 s \$0-size;
#X obj 272 687 t f f;
#X obj 122 96 loadbang;
#X text 316 156 1 ---;
#X text 316 186 2 ---;
#X text 316 216 3 ---;
#X text 316 246 4 ---;
#X text 316 276 5 ---;
#X text 316 306 6 ---;
#X text 316 336 7 ---;
#X text 316 366 8 ---;
#X text 316 396 9 ---;
#X text 309 426 10 ---;
#X text 309 456 11 ---;
#X text 309 486 12 ---;
#X text 309 516 13 ---;
#X text 309 546 14 ---;
#X obj 14 556 r \$0-interval;
#N canvas 1455 123 641 768 HEPTATONICAS 0;
#X msg 46 189 1 0 1 0 1 1 0 1 0 1 0 1;
#X msg 46 219 1 0 1 1 0 1 0 1 0 1 1 0;
#X msg 46 249 1 1 0 1 0 1 0 1 1 0 1 0;
#X msg 46 279 1 0 1 0 1 0 1 1 0 1 0 1;
#X msg 46 309 1 0 1 0 1 1 0 1 0 1 1 0;
#X msg 46 339 1 0 1 1 0 1 0 1 1 0 1 0;
#X msg 46 369 1 1 0 1 0 1 1 0 1 0 1 0;
#X msg 237 189 0 2 4 5 7 9 11;
#X msg 237 369 0 1 3 5 6 8 10;
#X msg 237 219 0 2 3 5 7 9 10;
#X msg 237 249 0 1 3 5 7 8 10;
#X msg 237 279 0 2 4 6 7 9 11;
#X msg 237 309 0 2 4 5 7 9 10;
#X msg 237 339 0 2 3 5 7 8 10;
#X msg 46 419 1 0 1 1 0 1 0 1 0 1 0 1;
#X msg 46 449 1 1 0 1 0 1 0 1 0 1 1 0;
#X msg 46 479 1 0 1 0 1 0 1 0 1 1 0 1;
#X msg 46 509 1 0 1 0 1 0 1 1 0 1 1 0;
#X msg 46 539 1 0 1 0 1 1 0 1 1 0 1 0;
#X msg 46 569 1 0 1 1 0 1 1 0 1 0 1 0;
#X msg 46 599 1 1 0 1 1 0 1 0 1 0 1 0;
#X msg 46 649 1 0 1 1 0 1 0 1 1 0 0 1;
#X msg 46 679 1 1 0 1 0 1 1 0 0 1 1 0;
#X msg 46 709 1 0 1 0 1 1 0 0 1 1 0 1;
#X msg 46 739 1 0 1 1 0 0 1 1 0 1 1 0;
#X msg 46 769 1 1 0 0 1 1 0 1 1 0 1 0;
#X msg 46 799 1 0 0 1 1 0 1 1 0 1 0 1;
#X msg 46 829 1 1 0 1 1 0 1 0 1 1 0 0;
#X msg 46 879 1 0 1 0 1 1 0 1 1 0 0 1;
#X msg 46 909 1 0 1 1 0 1 1 0 0 1 1 0;
#X msg 46 939 1 1 0 1 1 0 0 1 1 0 1 0;
#X msg 46 969 1 0 1 1 0 0 1 1 0 1 0 1;
#X msg 46 999 1 1 0 0 1 1 0 1 0 1 1 0;
#X msg 46 1029 1 0 0 1 1 0 1 0 1 1 0 1;
#X msg 46 1059 1 1 0 1 0 1 1 0 1 1 0 0;
#X msg 46 1109 1 0 1 1 0 1 1 0 0 1 0 1;
#X msg 46 1139 1 1 0 1 1 0 0 1 0 1 1 0;
#X msg 46 1169 1 0 1 1 0 0 1 0 1 1 0 1;
#X msg 46 1199 1 1 0 0 1 0 1 1 0 1 1 0;
#X msg 46 1229 1 0 0 1 0 1 1 0 1 1 0 1;
#X msg 46 1259 1 0 1 1 0 1 1 0 1 1 0 0;
#X msg 46 1289 1 1 0 1 1 0 1 1 0 0 1 0;
#X msg 46 1339 1 0 0 1 1 0 1 1 0 1 1 0;
#X msg 46 1369 1 1 0 1 1 0 1 1 0 1 0 0;
#X msg 46 1399 1 0 1 1 0 1 1 0 1 0 0 1;
#X msg 46 1429 1 1 0 1 1 0 1 0 0 1 1 0;
#X msg 46 1459 1 0 1 1 0 1 0 0 1 1 0 1;
#X msg 46 1489 1 1 0 1 0 0 1 1 0 1 1 0;
#X msg 46 1519 1 0 1 0 0 1 1 0 1 1 0 1;
#X msg 46 1569 1 1 0 1 0 1 0 1 0 1 0 1;
#X msg 46 1599 1 0 1 0 1 0 1 0 1 0 1 1;
#X msg 46 1629 1 0 1 0 1 0 1 0 1 1 1 0;
#X msg 46 1659 1 0 1 0 1 0 1 1 1 0 1 0;
#X msg 46 1689 1 0 1 0 1 1 1 0 1 0 1 0;
#X msg 46 1719 1 0 1 1 1 0 1 0 1 0 1 0;
#X msg 46 1749 1 1 1 0 1 0 1 0 1 0 1 0;
#X msg 46 1799 1 1 0 0 1 1 0 1 1 0 0 1;
#X msg 46 1829 1 0 0 1 1 0 1 1 0 0 1 1;
#X msg 46 1859 1 1 0 1 1 0 0 1 1 0 1 0;
#X msg 46 1889 1 0 1 1 0 0 1 1 1 0 0 1;
#X msg 46 1919 1 1 0 0 1 1 1 0 0 1 1 0;
#X msg 46 1949 1 0 0 1 1 1 0 0 1 1 0 1;
#X msg 46 1979 1 1 1 0 0 1 1 0 1 1 0 0;
#X msg 46 2029 1 0 1 1 0 0 1 1 0 0 1 1;
#X msg 46 2059 1 1 0 0 1 1 0 0 1 1 1 0;
#X msg 46 2089 1 0 0 1 1 0 1 0 1 1 0 1;
#X msg 46 2119 1 1 0 0 1 1 1 0 1 1 0 0;
#X msg 46 2149 1 0 0 1 1 1 0 1 1 0 0 1;
#X msg 46 2179 1 1 1 0 1 1 0 0 1 1 0 0;
#X msg 46 2209 1 1 0 1 1 0 0 1 1 0 0 1;
#X msg 46 2259 1 0 1 1 1 0 0 1 1 0 0 1;
#X msg 46 2289 1 1 1 0 0 1 1 0 0 1 1 0;
#X msg 46 2319 1 1 0 0 1 1 0 0 1 1 0 1;
#X msg 46 2349 1 0 0 1 1 0 0 1 1 0 1 1;
#X msg 46 2379 1 1 0 0 1 1 0 1 1 1 0 0;
#X msg 46 2409 1 0 0 1 1 0 1 1 1 0 0 1;
#X msg 46 2439 1 1 0 1 1 1 0 0 1 0 1 0;
#X text 44 124 http://www.lchr.org/a/29/gz/modes1.html;
#X text 44 104 Baseado em:;
#X msg 46 2489 1 1 0 0 1 0 1 1 1 0 0 1;
#X msg 46 2519 1 0 0 1 0 1 1 1 0 0 1 1;
#X msg 46 2549 1 0 1 1 1 0 0 1 1 1 0 0;
#X msg 46 2579 1 1 1 0 0 1 1 1 0 0 1 0;
#X msg 46 2609 1 1 0 0 1 1 1 0 0 1 0 1;
#X msg 46 2639 1 0 0 1 1 0 0 0 1 0 1 1;
#X msg 46 2669 1 1 1 0 0 1 0 1 1 1 0 0;
#X msg 46 2719 1 1 0 0 1 1 1 0 1 0 0 1;
#X msg 46 2749 1 0 0 1 1 1 0 1 0 0 1 1;
#X msg 46 2779 1 1 1 0 0 1 0 0 1 1 1 0;
#X msg 46 2809 1 1 0 1 0 0 1 1 1 0 0 1;
#X msg 46 2839 1 0 1 0 0 1 1 1 0 0 1 1;
#X msg 46 2869 1 0 0 1 1 0 0 0 1 1 1 0;
#X msg 46 2899 1 1 1 0 0 1 1 1 0 1 0 0;
#X msg 46 2949 1 1 0 1 1 1 0 0 1 0 0 1;
#X msg 46 2979 1 0 1 1 1 0 0 1 0 0 1 1;
#X msg 46 3009 1 1 1 0 0 1 0 0 1 1 1 0;
#X msg 46 3039 1 1 0 0 1 0 0 1 1 1 0 1;
#X msg 46 3069 1 0 0 1 0 0 1 1 1 0 1 1;
#X msg 46 3099 1 0 0 1 1 0 0 0 1 1 1 0;
#X msg 46 3129 1 1 1 0 1 1 0 1 0 1 0 0;
#X msg 46 3179 1 0 1 0 1 0 0 1 1 1 0 1;
#X msg 46 3209 1 0 1 0 0 1 1 1 0 1 1 0;
#X msg 46 3239 1 0 0 1 1 1 0 1 1 0 1 0;
#X msg 46 3269 1 1 1 0 1 1 0 1 0 1 0 0;
#X msg 46 3299 1 1 0 1 1 0 1 0 1 0 0 1;
#X msg 46 3329 1 0 1 1 0 1 0 1 0 0 1 1;
#X msg 46 3359 1 1 0 0 1 1 0 0 1 1 1 0;
#X msg 237 419 0 2 3 5 7 9 11;
#X msg 237 449 0 1 3 5 7 9 10;
#X msg 237 479 0 2 4 6 8 9 11;
#X msg 237 509 0 2 4 6 7 9 10;
#X msg 237 539 0 2 4 5 7 8 10;
#X msg 237 569 0 2 3 5 6 8 10;
#X msg 237 599 0 1 3 4 6 8 10;
#X msg 237 649 0 2 3 5 7 8 11;
#X msg 237 679 0 1 3 5 6 9 10;
#X msg 237 709 0 2 4 5 8 9 11;
#X msg 237 739 0 2 3 6 7 9 10;
#X msg 237 769 0 1 4 5 7 8 10;
#X msg 237 799 0 3 4 6 7 9 11;
#X msg 237 829 0 1 3 4 6 8 9;
#X msg 237 879 0 2 4 5 7 8 11;
#X msg 237 909 0 2 3 5 6 9 10;
#X msg 237 939 0 1 3 4 7 8 10;
#X msg 237 969 0 2 3 6 7 9 11;
#X msg 237 999 0 1 4 5 7 9 10;
#X msg 237 1029 0 3 4 6 8 9 11;
#X msg 237 1059 0 1 3 5 6 8 9;
#X msg 237 1109 0 2 3 5 6 9 11;
#X msg 237 1139 0 1 3 4 7 9 10;
#X msg 237 1169 0 2 3 6 8 9 11;
#X msg 237 1199 0 1 4 6 7 9 10;
#X msg 237 1229 0 3 5 6 8 9 11;
#X msg 237 1259 0 2 3 5 6 8 9;
#X msg 237 1289 0 1 3 4 6 7 10;
#X msg 237 1339 0 3 4 6 7 9 10;
#X msg 237 1369 0 1 3 4 6 7 9;
#X msg 237 1399 0 2 3 5 6 8 11;
#X msg 237 1429 0 1 3 4 6 9 10;
#X msg 237 1459 0 2 3 5 8 9 11;
#X msg 237 1489 0 1 3 6 7 9 10;
#X msg 237 1519 0 2 5 6 8 9 11;
#X msg 237 1569 0 1 3 5 7 9 11;
#X msg 237 1599 0 2 4 6 8 10 11;
#X msg 237 1629 0 2 4 6 8 9 10;
#X msg 237 1659 0 2 4 6 7 8 10;
#X msg 237 1689 0 2 4 5 6 8 10;
#X msg 237 1719 0 2 3 4 6 8 10;
#X msg 237 1749 0 1 2 4 6 8 10;
#X msg 237 1799 0 1 4 5 7 8 11;
#X msg 237 1829 0 3 4 6 7 10 11;
#X msg 237 1859 0 1 3 4 7 8 10;
#X msg 237 1889 0 2 3 6 7 8 11;
#X msg 237 1919 0 1 4 5 6 9 10;
#X msg 237 1949 0 3 4 5 8 9 11;
#X msg 237 1979 0 1 2 5 6 8 9;
#X msg 237 2029 0 2 3 6 7 10 11;
#X msg 237 2059 0 1 4 5 8 9 10;
#X msg 237 2089 0 3 4 6 8 9 11;
#X msg 237 2119 0 1 4 5 6 8 9;
#X msg 237 2149 0 3 4 5 7 8 11;
#X msg 237 2179 0 1 2 4 5 8 9;
#X msg 237 2209 0 1 3 4 7 8 11;
#X msg 237 2259 0 2 3 4 7 8 11;
#X msg 237 2289 0 1 2 5 6 9 10;
#X msg 237 2319 0 1 4 5 8 9 11;
#X msg 237 2349 0 3 4 7 8 10 11;
#X msg 237 2379 0 1 4 5 7 8 9;
#X msg 237 2409 0 3 4 6 7 8 11;
#X msg 237 2439 0 1 3 4 5 8 10;
#X msg 237 2489 0 1 4 6 7 8 11;
#X msg 237 2519 0 3 5 6 7 10 11;
#X msg 237 2549 0 2 3 4 7 8 9;
#X msg 237 2579 0 1 2 5 6 7 10;
#X msg 237 2609 0 1 4 5 6 9 11;
#X msg 237 2639 0 3 4 8 10 11;
#X msg 237 2669 0 1 2 5 7 8 9;
#X msg 237 2719 0 1 4 5 6 8 11;
#X msg 237 2749 0 3 4 5 7 10 11;
#X msg 237 2779 0 1 2 5 8 9 10;
#X msg 237 2809 0 1 3 6 7 8 11;
#X msg 237 2839 0 2 5 6 7 10 11;
#X msg 237 2869 0 3 4 8 9 10;
#X msg 237 2899 0 1 2 5 6 7 9;
#X msg 237 2949 0 1 3 4 5 8 11;
#X msg 237 2979 0 2 3 4 7 10 11;
#X msg 237 3009 0 1 2 5 8 9 10;
#X msg 237 3039 0 1 4 7 8 9 11;
#X msg 237 3069 0 3 6 7 8 10 11;
#X msg 237 3099 0 3 4 8 9 10;
#X msg 237 3129 0 1 2 4 5 7 9;
#X msg 237 3179 0 2 4 7 8 9 11;
#X msg 237 3209 0 2 5 6 7 9 10;
#X msg 237 3239 0 3 4 5 7 8 10;
#X msg 237 3269 0 1 2 4 5 7 9;
#X msg 237 3299 0 1 3 4 6 8 11;
#X msg 237 3329 0 2 3 5 7 10 11;
#X msg 237 3359 0 1 4 5 8 9 10;
#X msg 366 189 1 Ionian;
#X msg 366 219 2 Dorian;
#X msg 366 249 3 Phrygian;
#X msg 366 279 4 Lydian;
#X msg 366 309 5 Mixolydian;
#X msg 366 339 6 Aeolian;
#X msg 366 369 7 Locrian;
#X msg 366 419 1 Ascending Melodic Minor amm;
#X msg 366 449 2 Javanese amm;
#X msg 366 479 b3 Lydian Augmented amm;
#X msg 366 509 4 Overtone ammb7;
#X msg 366 539 5 Aeolian Major / Hindu amm;
#X msg 366 569 6 Locrian n2 / Aeolian b5 amm;
#X msg 366 599 7 Jazz Altered amm;
#X msg 366 649 1 Harmonic Minor hmin;
#X msg 366 679 2 Locrian n6 hmin;
#X msg 366 709 b3 Ionian Augmented hmin;
#X msg 366 739 4 Harmonic Minor hmin;
#X msg 366 769 5 Phrygian Dominant hmin;
#X msg 366 799 b6 Lydian #2 hmin;
#X msg 366 829 7 Altered Dom bb7 hmin;
#X msg 366 879 1 Harmonic Major hmaj;
#X msg 366 909 2 Locrian n2n6 / Dorian b5 hmaj;
#X msg 366 939 3 Harmonic Major hmaj;
#X msg 366 969 4 Harmonic Major hmaj;
#X msg 366 999 5 Dorian b2 hmaj;
#X msg 366 1029 b6 Harmonic Major hmaj;
#X msg 366 1059 7 Harmonic Major hmaj;
#X msg 366 1109 1 Wnn wnn;
#X msg 366 1139 2 Wnn wnn;
#X msg 366 1169 b3 Wnn wnn;
#X msg 366 1199 4 Wnn wnn;
#X msg 366 1229 b5 Wnn wnn;
#X msg 366 1259 6 Wnn wnn;
#X msg 366 1289 7 Wnn wnn;
#X msg 366 1339 1 Hungarian Major 1;
#X msg 366 1369 #2 Hungarian Major 1;
#X msg 366 1399 3 Hungarian Major 1;
#X msg 366 1429 #4 Hungarian Major 1;
#X msg 366 1459 5 Hungarian Major 1;
#X msg 366 1489 6 Hungarian Major 1;
#X msg 366 1519 b7 Hungarian Major 1;
#X msg 366 1569 1 Neapolitan Major nmaj;
#X msg 366 1599 b2 Leading Whole Tone nmaj;
#X msg 366 1629 b3 Neapolitan Major nmaj;
#X msg 366 1659 4 Lydian Minor nmaj;
#X msg 366 1689 5 Locrian Major nmaj;
#X msg 366 1719 6 Neapolitan Major nmaj;
#X msg 366 1749 7 Neapolitan Major nmaj;
#X msg 366 1799 1 Double Harmonic1 dh1;
#X msg 366 1829 b2 Double Harmonic1 dh1;
#X msg 366 1949 b6 Double Harmonic1 dh1;
#X msg 366 1859 3 Double Harmonic1 dh1;
#X msg 366 1889 4 Algerian dh1;
#X msg 366 1919 5 Oriental dh1;
#X msg 366 1979 7 Double Harmonic1 dh1;
#X msg 366 2029 1 Hungarian Minor1 dh2;
#X msg 366 2059 2 Hungarian Minor1 dh2;
#X msg 366 2089 b3 Hungarian Minor1 dh2;
#X msg 366 2119 #4 Hungarian Minor1 dh2;
#X msg 366 2149 #5 Hungarian Minor1 dh2;
#X msg 366 2179 6 Hungarian Minor1 dh2;
#X msg 366 2209 7 Hungarian Minor1 dh2;
#X msg 366 2259 1 Double Harmonic3 dh3;
#X msg 366 2289 2 Double Harmonic3 dh3;
#X msg 366 2319 b3 Double Harmonic3 dh3;
#X msg 366 2349 b4 Double Harmonic3 dh3;
#X msg 366 2379 5 Double Harmonic3 dh3;
#X msg 366 2409 b6 Double Harmonic3 dh3;
#X msg 366 2439 7 Double Harmonic3 dh3;
#X msg 366 2489 1 Double Harmonic4 dh4;
#X msg 366 2519 b2 Double Harmonic4 dh4;
#X msg 366 2549 3 Double Harmonic4 dh4;
#X msg 366 2579 #4 Double Harmonic4 dh4;
#X msg 366 2609 5 Double Harmonic4 dh4;
#X msg 366 2639 b6 Double Harmonic4 dh4;
#X msg 366 2669 7 Double Harmonic4 dh4;
#X msg 366 2719 1 Persian dh5;
#X msg 366 2749 b2 Persian dh5;
#X msg 366 2779 3 Persian dh5;
#X msg 366 2809 4 Persian dh5;
#X msg 366 2839 b5 Persian dh5;
#X msg 366 2869 b6 Persian dh;
#X msg 366 2899 7 Persian dh;
#X msg 366 2949 1 Double Harmonic6 dh6;
#X msg 366 2979 b2 Double Harmonic6 dh6;
#X msg 366 3009 b3 Double Harmonic6 dh6;
#X msg 366 3039 b4 Double Harmonic6 dh6;
#X msg 366 3069 bb5 Double Harmonic6 dh6;
#X msg 366 3099 6 Double Harmonic6 dh6;
#X msg 366 3129 7 Double Harmonic6 dh6;
#X msg 366 3179 1 E1 e1;
#X msg 366 3209 2 E1 e1;
#X msg 366 3239 3 E1 e1;
#X msg 366 3269 ##4 E1 e1;
#X msg 366 3299 #5 E1 e1;
#X msg 366 3329 6 E1 e1;
#X msg 366 3359 7 E1 e1;
#X text 44 144 BENJAMIN K. SHISLER - 1997;
#X text 44 34 Modos Septatônicos;
#X text 44 64 Padrâo do nome: 1- Posição tônica do modo relativo ao Ionian 2- Nome do modo (vários desconhecidos);
#X msg 366 3409 1 E2 e2;
#X msg 366 3439 2 E2 e2;
#X msg 366 3469 #3 E2 e2;
#X msg 366 3499 #4 E2 e2;
#X msg 366 3529 5 E2 e2;
#X msg 366 3559 6 E2 e2;
#X msg 366 3589 7 E2 e2;
#X msg 46 3409 1 0 1 0 0 1 1 1 0 1 0 1;
#X msg 46 3439 1 0 0 1 1 1 0 1 0 1 1 0;
#X msg 46 3469 1 1 1 0 1 0 1 1 0 1 0 0;
#X msg 46 3499 1 1 0 1 0 1 1 0 1 0 0 1;
#X msg 46 3529 1 0 1 0 1 1 0 1 0 0 1 1;
#X msg 46 3559 1 0 1 1 0 1 0 0 1 1 1 0;
#X msg 46 3589 1 1 0 1 0 0 1 1 1 0 1 0;
#X msg 366 3639 1 Neapolitan Minor e3;
#X msg 366 3669 b2 Neapolitan Minor e3;
#X msg 366 3699 b3 Neapolitan Minor e3;
#X msg 366 3729 4 Hungarian Gypsy e3;
#X msg 366 3759 5 Neapolitan Minor e3;
#X msg 366 3789 b6 Neapolitan Minor e3;
#X msg 366 3819 7 Neapolitan Minor e3;
#X msg 46 3639 1 1 0 1 0 1 0 1 1 0 0 1;
#X msg 46 3669 1 0 1 0 1 0 1 1 0 0 1 1;
#X msg 46 3699 1 0 1 0 1 1 0 0 1 1 1 0;
#X msg 46 3729 1 0 1 1 0 0 1 1 1 0 1 0;
#X msg 46 3759 1 1 0 0 1 1 1 0 1 0 1 0;
#X msg 46 3789 1 0 0 1 1 1 0 1 0 1 0 1;
#X msg 46 3819 1 1 1 0 1 0 1 0 1 1 0 0;
#X msg 366 3869 1 E4 e4;
#X msg 366 3899 #2 E4 e4;
#X msg 366 3929 #3 E4 e4;
#X msg 366 3959 #4 E4 e4;
#X msg 366 3989 5 E4 e4;
#X msg 366 4019 6 E4 e4;
#X msg 366 4049 7 E4 e4;
#X msg 46 3869 1 0 0 1 0 1 1 1 0 1 0 1;
#X msg 46 3899 1 0 1 1 1 0 1 0 1 1 0 0;
#X msg 46 3929 1 1 1 0 0 1 1 1 0 0 1 0;
#X msg 46 3959 1 1 0 1 0 1 1 0 0 1 0 1;
#X msg 46 3989 1 0 1 0 1 1 0 0 1 0 1 1;
#X msg 46 4019 1 0 1 1 0 0 1 0 1 1 1 0;
#X msg 46 4049 1 1 0 0 1 0 1 1 1 0 1 0;
#X msg 366 4879 bug;
#X msg 366 4909 bug;
#X msg 46 4879 bug;
#X msg 46 4909 bug;
#X msg 366 4099 1 E5 e5;
#X msg 366 4129 2 E5 e5;
#X msg 366 4159 b3 E5 e5;
#X msg 366 4189 b4 E5 e5;
#X msg 366 4219 b5 E5 e5;
#X msg 366 4249 b6 E5 e5;
#X msg 366 4279 7 E5 e5;
#X msg 366 4329 1 E6 e6;
#X msg 366 4359 2 E6 e6;
#X msg 366 4389 #3 E6 e6;
#X msg 366 4419 ##4 E6 e6;
#X msg 366 4449 #5 E6 e6;
#X msg 366 4479 6 E6 e6;
#X msg 366 4509 7 E6 e6;
#X msg 366 4559 1 E7 e7;
#X msg 366 4589 #2 E7 e7;
#X msg 366 4619 #3 E7 e7;
#X msg 366 4649 ##4 E7 e7;
#X msg 366 4679 #5 E7 e7;
#X msg 366 4709 6 E7 e7;
#X msg 366 4739 7 E7 e7;
#X msg 366 4789 1 E8 e8;
#X msg 366 4819 2 E8 e8;
#X msg 366 4849 3 E8 e8;
#X msg 366 4939 b6 E8 e8;
#X msg 366 4969 7 E8 e8;
#X msg 366 5019 1 E9 e9;
#X msg 366 5049 2 E9 e9;
#X msg 366 5079 b3 E9 e9;
#X msg 366 5109 b4 E9 e9;
#X msg 366 5139 b5 E9 e9;
#X msg 366 5169 6 E9 e9;
#X msg 366 5199 7 E9 e9;
#X msg 46 4099 1 0 1 1 1 0 1 0 1 0 0 1;
#X msg 46 4129 1 1 1 0 1 0 1 0 0 1 1 0;
#X msg 46 4159 1 1 0 1 0 1 0 0 1 1 0 1;
#X msg 46 4189 1 0 1 0 1 0 0 1 1 0 1 1;
#X msg 46 4219 1 0 1 0 0 1 1 0 1 1 1 0;
#X msg 46 4249 1 0 0 1 1 0 1 1 1 0 1 0;
#X msg 46 4279 1 1 0 1 1 1 0 1 0 1 0 0;
#X msg 46 4329 1 0 1 0 0 1 0 1 1 1 0 1;
#X msg 46 4359 1 0 0 1 0 1 1 1 0 1 1 0;
#X msg 46 4389 1 0 1 1 1 0 1 1 0 1 0 0;
#X msg 46 4419 1 1 1 0 1 0 1 1 0 0 1 0;
#X msg 46 4449 1 1 0 1 1 0 1 0 0 1 0 1;
#X msg 46 4479 1 0 1 1 0 1 0 0 1 0 1 1;
#X msg 46 4510 1 1 0 1 0 0 1 0 1 1 1 0;
#X msg 46 4559 1 0 0 1 0 1 0 1 1 1 0 1;
#X msg 46 4589 1 0 1 0 1 1 1 0 1 1 0 0;
#X msg 46 4619 1 0 1 1 1 0 1 0 1 0 1 0;
#X msg 46 4649 1 1 1 0 1 0 1 0 1 0 1 0;
#X msg 46 4679 1 1 0 1 1 0 0 1 0 1 0 1;
#X msg 46 4709 1 0 1 1 0 0 1 0 1 0 1 1;
#X msg 46 4739 1 1 0 0 1 0 1 0 1 1 1 0;
#X msg 46 4789 1 0 1 0 1 1 1 0 1 0 0 1;
#X msg 46 4819 1 0 1 1 1 0 1 0 0 1 1 0;
#X msg 46 4849 1 1 1 0 1 0 0 1 1 0 1 0;
#X msg 46 4939 1 0 0 1 1 0 1 0 1 1 1 0;
#X msg 46 4969 1 1 0 1 0 1 1 1 0 1 0 0;
#X msg 46 5019 1 0 1 1 1 0 1 0 0 1 0 1;
#X msg 46 5049 1 1 1 0 1 0 0 1 0 1 1 0;
#X msg 46 5079 1 1 0 1 0 0 1 0 1 1 0 1;
#X msg 46 5109 1 0 1 0 0 1 0 1 1 1 1 0;
#X msg 46 5139 1 0 0 1 0 1 1 0 1 1 1 0;
#X msg 46 5169 1 0 1 1 0 1 1 1 0 1 0 0;
#X msg 46 5199 1 1 0 1 1 1 0 1 0 0 1 0;
#X msg 366 5889 7 Enigmatic e12;
#X msg 366 5859 #6 Enigmatic e12;
#X msg 366 5829 #5 Enigmatic e12;
#X msg 366 5799 #4 Enigmatic e12;
#X msg 366 5769 3 Enigmatic e12;
#X msg 366 5739 #2 Enigmatic e12;
#X msg 366 5709 1 Enigmatic e12;
#X msg 366 5659 7 E11 e11;
#X msg 366 5629 6 E11 e11;
#X msg 366 5599 b5 E11 e11;
#X msg 366 5569 4 E11 e11;
#X msg 366 5539 3 E11 e11;
#X msg 366 5509 2 E11 e11;
#X msg 366 5479 1 E11 e11;
#X msg 366 5429 7 E10 e10;
#X msg 366 5399 6 E10 e10;
#X msg 366 5369 5 E10 e10;
#X msg 366 5339 b4 E10 e10;
#X msg 366 5309 b3 E10 e10;
#X msg 366 5279 2 E10 e10;
#X msg 366 5249 1 E10 e10;
#X msg 46 5249 1 0 1 1 1 0 0 1 0 1 0 1;
#X msg 46 5279 1 1 1 0 0 1 0 1 0 1 1 0;
#X msg 46 5309 1 1 0 0 1 0 1 0 1 1 0 1;
#X msg 46 5339 1 0 0 1 0 1 0 1 1 0 1 1;
#X msg 46 5369 1 0 1 0 1 1 0 1 1 1 0 0;
#X msg 46 5399 1 0 1 1 0 1 1 1 0 0 1 0;
#X msg 46 5429 1 1 0 1 1 1 0 0 1 0 1 0;
#X msg 46 5479 1 0 1 0 1 1 1 0 0 1 0 1;
#X msg 46 5509 1 0 1 0 1 0 0 1 0 1 1 0;
#X msg 46 5539 1 1 1 0 0 1 0 1 1 0 1 0;
#X msg 46 5569 1 1 0 0 1 0 1 1 0 1 0 1;
#X msg 46 5599 1 0 0 1 0 1 1 0 1 0 1 1;
#X msg 46 5629 1 0 1 1 0 1 0 1 1 1 0 0;
#X msg 46 5659 1 1 0 1 0 1 1 1 0 0 1 0;
#X msg 46 5709 1 0 0 1 1 0 1 0 1 0 1 1;
#X msg 46 5739 1 1 0 1 0 1 0 1 1 1 0 0;
#X msg 46 5769 1 0 1 0 1 0 1 1 1 0 0 1;
#X msg 46 5799 1 0 1 0 1 1 1 0 0 1 1 0;
#X msg 46 5829 1 0 1 1 1 0 0 1 1 0 1 0;
#X msg 46 5859 1 1 1 0 0 1 1 0 1 0 1 0;
#X msg 46 5889 1 1 0 0 1 1 0 1 0 1 0 1;
#X msg 237 3409 0 2 5 6 7 9 11;
#X msg 237 3439 0 3 4 5 7 9 10;
#X msg 237 3469 0 1 2 4 6 7 9;
#X msg 237 3499 0 1 3 5 6 8 11;
#X msg 237 3529 0 2 4 5 7 10 11;
#X msg 237 3559 0 2 3 5 8 9 10;
#X msg 237 3589 0 1 3 6 7 8 10;
#X msg 237 3639 0 1 3 5 7 8 11;
#X msg 237 3669 0 2 4 6 7 10 11;
#X msg 237 3699 0 2 4 5 8 9 10;
#X msg 237 3729 0 2 3 6 7 8 10;
#X msg 237 3759 0 1 4 5 6 8 10;
#X msg 237 3789 0 3 4 5 7 9 11;
#X msg 237 3819 0 1 2 4 6 8 9;
#X msg 237 3869 0 3 5 6 7 9 11;
#X msg 237 3899 0 2 3 4 6 8 9;
#X msg 237 3929 0 1 2 5 6 7 10;
#X msg 237 3959 0 1 3 5 6 9 11;
#X msg 237 3989 0 2 4 5 8 10 11;
#X msg 237 4019 0 2 3 6 8 9 10;
#X msg 237 4049 0 1 4 6 7 8 10;
#X msg 237 4099 0 2 3 4 6 8 11;
#X msg 237 4129 0 1 2 4 6 9 10;
#X msg 237 4159 0 1 3 5 8 9 11;
#X msg 237 4189 0 2 4 7 8 10 11;
#X msg 237 4219 0 2 5 6 8 9 10;
#X msg 237 4249 0 3 4 6 7 8 10;
#X msg 237 4279 0 1 3 4 5 7 9;
#X msg 237 4329 0 2 5 7 8 9 11;
#X msg 237 4359 0 3 5 6 7 9 10;
#X msg 237 4389 0 2 3 4 6 7 9;
#X msg 237 4419 0 1 2 4 6 7 10;
#X msg 237 4449 0 1 3 4 6 9 11;
#X msg 237 4479 0 2 3 5 8 10 11;
#X msg 237 4509 0 1 3 6 8 9 10;
#X msg 237 4559 0 3 5 7 8 9 11;
#X msg 237 4589 0 2 4 5 6 8 9;
#X msg 237 4619 0 2 3 4 6 8 10;
#X msg 237 4649 0 1 2 4 6 8 10;
#X msg 237 4679 0 1 3 4 7 9 11;
#X msg 237 4709 0 2 3 6 8 10 11;
#X msg 237 4739 0 1 4 6 8 9 10;
#X msg 237 4789 0 2 4 5 6 8 11;
#X msg 237 4819 0 2 3 4 6 9 10;
#X msg 237 4849 0 1 2 4 7 8 10;
#X msg 237 4939 0 3 4 6 8 9 10;
#X msg 237 4969 0 1 3 5 6 7 9;
#X msg 237 5019 0 2 3 4 6 9 11;
#X msg 237 5049 0 1 2 4 7 9 10;
#X msg 237 5079 0 1 3 6 8 9 11;
#X msg 237 5109 0 2 5 7 8 9 10;
#X msg 237 5139 0 3 5 6 8 9 10;
#X msg 237 5169 0 2 3 5 6 7 9;
#X msg 237 5199 0 1 3 4 5 7 10;
#X msg 237 5249 0 2 3 4 7 9 11;
#X msg 237 5279 0 1 2 5 7 9 10;
#X msg 237 5309 0 1 4 6 8 9 11;
#X msg 237 5339 0 3 5 7 8 10 11;
#X msg 237 5369 0 2 4 5 7 8 9;
#X msg 237 5399 0 2 3 5 6 7 10;
#X msg 237 5429 0 1 3 4 5 8 10;
#X msg 237 5479 0 2 4 5 6 9 11;
#X msg 237 5509 0 2 4 7 9 10;
#X msg 237 5539 0 1 2 5 7 8 10;
#X msg 237 5569 0 1 4 6 7 9 11;
#X msg 237 5599 0 3 5 6 8 10 11;
#X msg 237 5629 0 2 3 5 7 8 9;
#X msg 237 5659 0 1 3 5 6 7 10;
#X msg 237 5709 0 3 4 6 8 10 11;
#X msg 237 5739 0 1 3 5 7 8 9;
#X msg 237 5769 0 2 4 6 7 8 11;
#X msg 237 5799 0 2 4 5 6 9 10;
#X msg 237 5829 0 2 3 4 7 8 10;
#X msg 237 5859 0 1 2 5 6 8 10;
#X msg 237 5889 0 1 4 5 7 9 11;
#X msg 237 4879 bug;
#X msg 237 4909 bug;
#N canvas 148 183 221 418 CONVERTE_BINARIO_INTERVALOS 0;
#X obj 72 107 until;
#X obj 72 316 list;
#X obj 47 343 list;
#X obj 72 135 list;
#X obj 72 161 list split 1;
#X obj 72 188 t f b;
#X obj 134 211 + 1;
#X obj 72 238 sel 1;
#X obj 72 264 f;
#X obj 72 292 list prepend;
#X msg 122 188 0;
#X obj 104 211 f 0;
#X obj 47 54 t b b l b b;
#X obj 47 367 outlet;
#X obj 47 29 inlet;
#X msg 72 83 12;
#X connect 0 0 3 0;
#X connect 1 0 2 1;
#X connect 1 0 9 1;
#X connect 2 0 13 0;
#X connect 3 0 4 0;
#X connect 4 0 5 0;
#X connect 4 1 3 1;
#X connect 5 0 7 0;
#X connect 5 1 11 0;
#X connect 6 0 11 1;
#X connect 7 0 8 0;
#X connect 8 0 9 0;
#X connect 9 0 1 0;
#X connect 10 0 11 1;
#X connect 11 0 6 0;
#X connect 11 0 8 1;
#X connect 12 0 2 0;
#X connect 12 1 15 0;
#X connect 12 2 3 1;
#X connect 12 3 10 0;
#X connect 12 4 9 1;
#X connect 14 0 12 0;
#X connect 15 0 0 0;
#X restore 366 139 pd CONVERTE_BINARIO_INTERVALOS;
#X obj 237 5926 s \$0-interval;
#X connect 7 0 531 0;
#X connect 8 0 531 0;
#X connect 9 0 531 0;
#X connect 10 0 531 0;
#X connect 11 0 531 0;
#X connect 12 0 531 0;
#X connect 13 0 531 0;
#X connect 107 0 531 0;
#X connect 108 0 531 0;
#X connect 109 0 531 0;
#X connect 110 0 531 0;
#X connect 111 0 531 0;
#X connect 112 0 531 0;
#X connect 113 0 531 0;
#X connect 114 0 531 0;
#X connect 115 0 531 0;
#X connect 116 0 531 0;
#X connect 117 0 531 0;
#X connect 118 0 531 0;
#X connect 119 0 531 0;
#X connect 120 0 531 0;
#X connect 121 0 531 0;
#X connect 122 0 531 0;
#X connect 123 0 531 0;
#X connect 124 0 531 0;
#X connect 125 0 531 0;
#X connect 126 0 531 0;
#X connect 127 0 531 0;
#X connect 128 0 531 0;
#X connect 129 0 531 0;
#X connect 130 0 531 0;
#X connect 131 0 531 0;
#X connect 132 0 531 0;
#X connect 133 0 531 0;
#X connect 134 0 531 0;
#X connect 135 0 531 0;
#X connect 136 0 531 0;
#X connect 137 0 531 0;
#X connect 138 0 531 0;
#X connect 139 0 531 0;
#X connect 140 0 531 0;
#X connect 141 0 531 0;
#X connect 142 0 531 0;
#X connect 143 0 531 0;
#X connect 144 0 531 0;
#X connect 145 0 531 0;
#X connect 146 0 531 0;
#X connect 147 0 531 0;
#X connect 148 0 531 0;
#X connect 149 0 531 0;
#X connect 150 0 531 0;
#X connect 151 0 531 0;
#X connect 152 0 531 0;
#X connect 153 0 531 0;
#X connect 154 0 531 0;
#X connect 155 0 531 0;
#X connect 156 0 531 0;
#X connect 157 0 531 0;
#X connect 158 0 531 0;
#X connect 159 0 531 0;
#X connect 160 0 531 0;
#X connect 161 0 531 0;
#X connect 162 0 531 0;
#X connect 163 0 531 0;
#X connect 164 0 531 0;
#X connect 165 0 531 0;
#X connect 166 0 531 0;
#X connect 167 0 531 0;
#X connect 168 0 531 0;
#X connect 169 0 531 0;
#X connect 170 0 531 0;
#X connect 171 0 531 0;
#X connect 172 0 531 0;
#X connect 173 0 531 0;
#X connect 174 0 531 0;
#X connect 175 0 531 0;
#X connect 176 0 531 0;
#X connect 177 0 531 0;
#X connect 178 0 531 0;
#X connect 179 0 531 0;
#X connect 180 0 531 0;
#X connect 181 0 531 0;
#X connect 182 0 531 0;
#X connect 183 0 531 0;
#X connect 184 0 531 0;
#X connect 185 0 531 0;
#X connect 186 0 531 0;
#X connect 187 0 531 0;
#X connect 188 0 531 0;
#X connect 189 0 531 0;
#X connect 190 0 531 0;
#X connect 191 0 531 0;
#X connect 192 0 531 0;
#X connect 193 0 531 0;
#X connect 194 0 531 0;
#X connect 195 0 531 0;
#X connect 196 0 531 0;
#X connect 197 0 531 0;
#X connect 453 0 531 0;
#X connect 454 0 531 0;
#X connect 455 0 531 0;
#X connect 456 0 531 0;
#X connect 457 0 531 0;
#X connect 458 0 531 0;
#X connect 459 0 531 0;
#X connect 460 0 531 0;
#X connect 461 0 531 0;
#X connect 462 0 531 0;
#X connect 463 0 531 0;
#X connect 464 0 531 0;
#X connect 465 0 531 0;
#X connect 466 0 531 0;
#X connect 467 0 531 0;
#X connect 468 0 531 0;
#X connect 469 0 531 0;
#X connect 470 0 531 0;
#X connect 471 0 531 0;
#X connect 472 0 531 0;
#X connect 473 0 531 0;
#X connect 474 0 531 0;
#X connect 475 0 531 0;
#X connect 476 0 531 0;
#X connect 477 0 531 0;
#X connect 478 0 531 0;
#X connect 479 0 531 0;
#X connect 480 0 531 0;
#X connect 481 0 531 0;
#X connect 482 0 531 0;
#X connect 483 0 531 0;
#X connect 484 0 531 0;
#X connect 485 0 531 0;
#X connect 486 0 531 0;
#X connect 487 0 531 0;
#X connect 488 0 531 0;
#X connect 489 0 531 0;
#X connect 490 0 531 0;
#X connect 491 0 531 0;
#X connect 492 0 531 0;
#X connect 493 0 531 0;
#X connect 494 0 531 0;
#X connect 495 0 531 0;
#X connect 496 0 531 0;
#X connect 497 0 531 0;
#X connect 498 0 531 0;
#X connect 499 0 531 0;
#X connect 500 0 531 0;
#X connect 501 0 531 0;
#X connect 502 0 531 0;
#X connect 503 0 531 0;
#X connect 504 0 531 0;
#X connect 505 0 531 0;
#X connect 506 0 531 0;
#X connect 507 0 531 0;
#X connect 508 0 531 0;
#X connect 509 0 531 0;
#X connect 510 0 531 0;
#X connect 511 0 531 0;
#X connect 512 0 531 0;
#X connect 513 0 531 0;
#X connect 514 0 531 0;
#X connect 515 0 531 0;
#X connect 516 0 531 0;
#X connect 517 0 531 0;
#X connect 518 0 531 0;
#X connect 519 0 531 0;
#X connect 520 0 531 0;
#X connect 521 0 531 0;
#X connect 522 0 531 0;
#X connect 523 0 531 0;
#X connect 524 0 531 0;
#X connect 525 0 531 0;
#X connect 526 0 531 0;
#X connect 527 0 531 0;
#X restore 586 59 pd HEPTATONICAS;
#X obj 122 688 list trim;
#X obj 122 39 r \$0-setScale;
#X obj 122 60 sel 0 1 2 3 4 5 6 7 8 9 10 11 12 13 14;
#X text 316 126 0 ---;
#X connect 0 0 41 0;
#X connect 1 0 41 0;
#X connect 2 0 41 0;
#X connect 3 0 41 0;
#X connect 4 0 41 0;
#X connect 5 0 41 0;
#X connect 9 0 41 0;
#X connect 11 0 37 0;
#X connect 12 0 11 0;
#X connect 13 0 18 0;
#X connect 14 0 18 2;
#X connect 15 0 18 1;
#X connect 18 0 39 0;
#X connect 19 0 41 0;
#X connect 20 0 41 0;
#X connect 21 0 41 0;
#X connect 22 0 41 0;
#X connect 25 0 41 0;
#X connect 26 0 41 0;
#X connect 28 0 41 0;
#X connect 32 0 41 0;
#X connect 37 0 13 0;
#X connect 40 0 64 0;
#X connect 41 0 40 0;
#X connect 41 1 42 0;
#X connect 42 0 46 0;
#X connect 44 0 43 0;
#X connect 46 0 44 0;
#X connect 46 1 45 0;
#X connect 47 0 22 0;
#X connect 62 0 41 0;
#X connect 64 0 38 0;
#X connect 65 0 66 0;
#X connect 66 0 22 0;
#X connect 66 1 9 0;
#X connect 66 2 4 0;
#X connect 66 3 0 0;
#X connect 66 4 3 0;
#X connect 66 5 19 0;
#X connect 66 6 25 0;
#X connect 66 7 26 0;
#X connect 66 8 1 0;
#X connect 66 9 2 0;
#X connect 66 10 5 0;
#X connect 66 11 28 0;
#X connect 66 12 32 0;
#X connect 66 13 20 0;
#X connect 66 14 21 0;
#X restore 516 212 pd ESCALAS;
#X obj 59 98 - 0;
#X obj 59 547 + 0;
#X obj 77 505 r \$0-octave;
#X obj 59 474 + 0;
#X obj 77 453 r \$0-base;
#X obj 77 77 r \$0-offset;
#X text 503 268 OFFSET;
#X text 503 288 BASE NOTE;
#X text 503 308 OCTAVE;
#X text 503 328 SCALE;
#X obj 77 526 * 12;
#X obj 201 563 r \$0-size;
#X obj 201 598 outlet SCALE_SIZE;
#X text 198 538 SAÍDA DO NÚMERO DE NOTAS NA ESCALA;
#X obj 59 36 inlet FLOAT;
#X obj 201 36 inlet OFFSET;
#X obj 327 36 inlet BASE;
#X obj 437 36 inlet OCTAVE;
#X obj 563 36 inlet SCALE;
#X obj 241 380 * 12;
#X obj 209 401 + 0;
#X obj 209 255 t f f;
#X obj 209 349 tabread \$0-scale;
#X obj 59 598 outlet NOTE;
#X obj 59 140 moses;
#X obj 241 276 div 12;
#X obj 209 328 mod 12;
#X obj 59 119 int;
#X obj 84 255 t f f;
#X obj 225 172 r \$0-size;
#X obj 59 349 tabread \$0-scale;
#X obj 141 276 div 12;
#X obj 84 276 mod 12;
#X obj 59 234 swap;
#X obj 59 307 -;
#X obj 59 213 pack f 12;
#X obj 59 171 abs;
#X obj 59 192 - 1;
#X obj 59 328 - 1;
#X obj 59 380 - 12;
#X obj 141 380 * 12;
#X obj 59 401 - 0;
#X obj 59 422 f;
#N canvas 1256 221 402 279 \$0-CONTROL 0;
#X obj 120 50 memo \$0-memo 4 \$1;
#X obj 120 90 param \$0-offset \$0-memo 0 \$2;
#X floatatom 50 90 5 0 0 0 - \$0-offset_gui_set \$0-offset_gui 0;
#X obj 120 120 param \$0-base \$0-memo 1 \$3;
#X floatatom 50 120 5 0 0 0 - \$0-base_gui_set \$0-base_gui 0;
#X obj 120 150 param \$0-octave \$0-memo 2 \$4;
#X floatatom 50 150 5 0 0 0 - \$0-octave_gui_set \$0-octave_gui 0;
#X obj 120 180 param \$0-setScale \$0-memo 3 \$5;
#X floatatom 50 180 5 0 0 0 - \$0-setScale_gui_set \$0-setScale_gui 0;
#X restore 563 128 pd \$0-CONTROL;
#X obj 201 67 s \$0-offset-;
#X obj 327 67 s \$0-base-;
#X obj 437 67 s \$0-octave-;
#X floatatom 582 268 3 0 0 0 - \$0-offset_gui_set \$0-offset_gui 0;
#X floatatom 582 288 3 0 0 0 - \$0-base_gui_set \$0-base_gui 0;
#X floatatom 582 308 3 0 0 0 - \$0-octave_gui_set \$0-octave_gui 0;
#X floatatom 582 328 3 0 0 0 - \$0-setScale_gui_set \$0-setScale_gui 0;
#X obj 563 67 s \$0-setScale-;
#X obj 225 193 t f f f f f;
#X connect 1 0 28 0;
#X connect 2 0 24 0;
#X connect 3 0 11 0;
#X connect 4 0 2 0;
#X connect 5 0 4 1;
#X connect 6 0 1 1;
#X connect 11 0 2 1;
#X connect 12 0 13 0;
#X connect 15 0 1 0;
#X connect 16 0 45 0;
#X connect 17 0 46 0;
#X connect 18 0 47 0;
#X connect 19 0 52 0;
#X connect 20 0 21 1;
#X connect 21 0 43 0;
#X connect 22 0 27 0;
#X connect 22 1 26 0;
#X connect 23 0 21 0;
#X connect 25 0 37 0;
#X connect 25 1 22 0;
#X connect 26 0 20 0;
#X connect 27 0 23 0;
#X connect 28 0 25 0;
#X connect 29 0 33 0;
#X connect 29 1 32 0;
#X connect 30 0 53 0;
#X connect 31 0 40 0;
#X connect 32 0 41 0;
#X connect 33 0 35 1;
#X connect 34 0 35 0;
#X connect 34 1 29 0;
#X connect 35 0 39 0;
#X connect 36 0 34 0;
#X connect 37 0 38 0;
#X connect 38 0 36 0;
#X connect 39 0 31 0;
#X connect 40 0 42 0;
#X connect 41 0 42 1;
#X connect 42 0 43 0;
#X connect 43 0 4 0;
#X connect 53 0 33 1;
#X connect 53 1 32 1;
#X connect 53 2 36 1;
#X connect 53 3 26 1;
#X connect 53 4 20 1;
#X coords 0 -1 1 1 110 100 1 500 250;
