#N canvas 181 119 1303 653 12;
#X declare -path abs -path abs/comemo-pd-1.3;
#X obj 1 1 cnv 20 1300 650 empty empty empty 20 12 0 12 #7c7c7c #404040 0;
#X obj 90 593 dac~;
#X obj 1061 141 bng 20 250 50 0 empty empty empty 0 -10 0 12 #fcfcfc #000000 #000000;
#X obj 90 59 FETXT \$0-A;
#X obj 570 593 dac~;
#X obj 570 59 FETXT \$0-A;
#N canvas 1463 264 446 266 EXAMPLE_FILE 0;
#X obj 91 45 loadbang;
#X msg 91 87 dir;
#X obj 91 108 pdcontrol;
#X obj 91 170 outlet;
#X msg 91 129 read \$1/presets/presets1 \, slot 0 \, load;
#X obj 91 66 del 10;
#X connect 0 0 5 0;
#X connect 1 0 2 0;
#X connect 2 0 4 0;
#X connect 4 0 3 0;
#X connect 5 0 1 0;
#X restore 1121 101 pd EXAMPLE_FILE;
#X obj 1061 162 presets2 \$0-A;
#X text 1059 334 CLICK - CHANGE SLOT;
#X text 1059 354 DOUBLE CLICK - LOAD SLOT;
#X text 1090 141 SAVE PRESET;
#X obj 1064 440 hsl 164 20 0 1 0 0 empty empty empty -2 -10 0 12 #ffffff #000000 #000000 0 1;
#X obj 1061 461 * 5000;
#X floatatom 1061 482 5 0 0 0 - - - 0;
#X obj 1061 523 s \$0-A_slew;
#X text 1059 415 PRESET MORPH;
#X obj 1061 502 pack 0 0.5;
#N canvas 1430 311 508 175 INIT 0;
#X obj 383 54 loadbang;
#X msg 383 75 \; pd dsp 1;
#X obj 51 54 declare -path abs -path abs/comemo-pd-1.3;
#X connect 0 0 1 0;
#X restore 1177 59 pd INIT;
#X connect 2 0 7 0;
#X connect 3 0 1 0;
#X connect 3 0 1 1;
#X connect 3 4 5 0;
#X connect 5 0 4 1;
#X connect 5 0 4 0;
#X connect 6 0 7 0;
#X connect 11 0 12 0;
#X connect 12 0 13 0;
#X connect 13 0 16 0;
#X connect 16 0 14 0;
