#N canvas 151 128 1151 660 12;
#X declare -path abs -path abs/comemo-pd-1.3;
#X obj 758 483 tabwrite~ \$0-view;
#N canvas 0 50 450 250 (subpatch) 0;
#X array \$0-view 4800 float 0;
#X coords 0 1 4799 -1 200 140 1 0 0;
#X restore 734 287 graph;
#X obj 526 463 *~ 1;
#X floatatom 758 184 5 0 0 0 - - - 0;
#X msg 758 204 resize \$1;
#X obj 758 225 s \$0-view;
#N canvas 114 360 711 491 FREQ 0;
#X obj 76 88 * 127;
#X obj 76 303 mtof~;
#X obj 76 354 +~;
#X obj 76 395 outlet~;
#N canvas 128 498 594 326 FREQ_ENV 0;
#X obj 259 106 pow 2;
#X obj 87 189 *~;
#X obj 399 128 line~;
#X obj 399 86 * 127;
#X obj 399 149 mtof~;
#X obj 399 170 -~ 8.175;
#X obj 87 240 outlet~;
#X obj 87 55 r \$0-trig_gui;
#X obj 259 55 r \$0-freqDecay;
#X obj 399 55 r \$0-freqEnvAmt;
#X obj 259 148 + 3;
#X obj 259 127 * 1997;
#X obj 399 107 pack 0 5;
#X obj 87 137 else/timed.gate~ 3;
#X obj 87 168 else/asr~ 3 300;
#X connect 0 0 11 0;
#X connect 1 0 6 0;
#X connect 2 0 4 0;
#X connect 3 0 12 0;
#X connect 4 0 5 0;
#X connect 5 0 1 1;
#X connect 7 0 13 0;
#X connect 8 0 0 0;
#X connect 9 0 3 0;
#X connect 10 0 14 2;
#X connect 11 0 10 0;
#X connect 12 0 2 0;
#X connect 13 0 14 0;
#X connect 14 0 1 0;
#X restore 136 333 pd FREQ_ENV;
#X obj 479 294 int;
#X floatatom 94 231 5 0 0 0 - - - 0;
#X obj 362 140 f;
#X obj 486 120 *;
#X obj 76 47 r \$0-freq;
#X obj 362 47 r \$0-trig_gui;
#X obj 504 78 r \$0-freqRandAmt;
#X obj 486 47 r \$0-randomBuffer;
#X obj 190 47 r \$0-note;
#X obj 76 109 t f f;
#X obj 190 129 s \$0-note_set;
#X obj 190 68 / 127;
#X obj 190 89 s \$0-freq-;
#X obj 486 168 r \$0-scale;
#X obj 504 99 t b f;
#X obj 76 272 +;
#X obj 94 251 t b f;
#X obj 479 315 scaler;
#X obj 486 189 t f f;
#X obj 362 273 spigot;
#X obj 479 273 spigot;
#X obj 362 182 t f f;
#X obj 536 210 - 1;
#X obj 536 231 moses 0;
#X obj 486 210 > 0;
#X obj 486 231 t f f;
#X obj 401 252 == 0;
#X obj 362 161 * 96;
#X connect 0 0 14 0;
#X connect 1 0 2 0;
#X connect 2 0 3 0;
#X connect 4 0 2 1;
#X connect 5 0 22 0;
#X connect 6 0 21 0;
#X connect 7 0 32 0;
#X connect 8 0 7 1;
#X connect 9 0 0 0;
#X connect 10 0 7 0;
#X connect 11 0 19 0;
#X connect 12 0 8 0;
#X connect 13 0 16 0;
#X connect 14 0 20 0;
#X connect 14 1 15 0;
#X connect 16 0 17 0;
#X connect 18 0 23 0;
#X connect 19 0 8 0;
#X connect 19 1 8 1;
#X connect 20 0 1 0;
#X connect 21 0 20 0;
#X connect 21 1 20 1;
#X connect 22 0 6 0;
#X connect 23 0 29 0;
#X connect 23 1 27 0;
#X connect 24 0 6 0;
#X connect 25 0 5 0;
#X connect 26 0 24 0;
#X connect 26 1 25 0;
#X connect 27 0 28 0;
#X connect 28 1 22 4;
#X connect 29 0 30 0;
#X connect 30 0 31 0;
#X connect 30 1 25 1;
#X connect 31 0 24 1;
#X connect 32 0 26 0;
#X restore 526 132 pd FREQ;
#N canvas 0 0 411 393 OSCILLATORS 0;
#X obj 101 61 inlet~ FREQ;
#N canvas 0 0 498 359 SELECT~ 0;
#X obj 93 49 inlet~;
#X obj 93 213 *~;
#X obj 111 192 line~;
#X msg 111 150 0;
#X msg 151 150 1;
#X obj 93 274 outlet~;
#X obj 203 49 inlet~;
#X obj 203 213 *~;
#X obj 221 192 line~;
#X msg 221 150 0;
#X msg 261 150 1;
#X obj 323 49 inlet;
#X obj 323 109 sel 0 1;
#X obj 323 130 t b b;
#X obj 373 130 t b b;
#X obj 111 171 pack 0 5;
#X obj 221 171 pack 0 5;
#X connect 0 0 1 0;
#X connect 1 0 5 0;
#X connect 2 0 1 1;
#X connect 3 0 15 0;
#X connect 4 0 15 0;
#X connect 6 0 7 0;
#X connect 7 0 5 0;
#X connect 8 0 7 1;
#X connect 9 0 16 0;
#X connect 10 0 16 0;
#X connect 11 0 12 0;
#X connect 12 0 13 0;
#X connect 12 1 14 0;
#X connect 13 0 4 0;
#X connect 13 1 9 0;
#X connect 14 0 3 0;
#X connect 14 1 10 0;
#X connect 15 0 2 0;
#X connect 16 0 8 0;
#X restore 101 264 pd SELECT~;
#X obj 203 152 else/impseq~;
#X msg 203 131 1;
#X obj 101 315 outlet~;
#X obj 168 243 r \$0-wave;
#X obj 203 110 r \$0-trig_gui;
#X obj 101 172 else/bl.saw~;
#X obj 135 203 else/bl.square~;
#X connect 0 0 7 0;
#X connect 0 0 8 0;
#X connect 1 0 4 0;
#X connect 2 0 7 1;
#X connect 2 0 8 2;
#X connect 3 0 2 0;
#X connect 5 0 1 2;
#X connect 6 0 3 0;
#X connect 7 0 1 0;
#X connect 8 0 1 1;
#X restore 526 163 pd OSCILLATORS;
#N canvas 1113 246 1123 640 FILTER 0;
#X obj 125 174 line~;
#X obj 621 154 * 3;
#X obj 621 175 + 0.5;
#X obj 621 133 pow 2;
#X obj 125 132 * 127;
#X obj 81 555 outlet~;
#X obj 81 48 inlet~;
#X obj 125 195 mtof~;
#N canvas 0 0 582 339 CUTOFF_ENV 0;
#X obj 239 106 pow 2;
#X obj 67 199 *~;
#X obj 389 138 line~;
#X obj 239 148 + 3;
#X obj 389 96 * 127;
#X obj 389 159 mtof~;
#X obj 389 180 -~ 8.175;
#X obj 67 250 outlet~;
#X obj 239 55 r \$0-cutoffDecay;
#X obj 389 55 r \$0-cutoffEnvAmt;
#X obj 67 55 r \$0-trig_gui;
#X obj 239 127 * 2997;
#X obj 389 117 pack 0 5;
#X obj 67 137 else/timed.gate~ 3;
#X obj 67 168 else/asr~ 3 300;
#X connect 0 0 11 0;
#X connect 1 0 7 0;
#X connect 2 0 5 0;
#X connect 3 0 14 2;
#X connect 4 0 12 0;
#X connect 5 0 6 0;
#X connect 6 0 1 1;
#X connect 8 0 0 0;
#X connect 9 0 4 0;
#X connect 10 0 13 0;
#X connect 11 0 3 0;
#X connect 12 0 2 0;
#X connect 13 0 14 0;
#X connect 14 0 1 0;
#X restore 193 194 pd CUTOFF_ENV;
#X obj 125 102 r \$0-cutoff;
#X obj 621 102 r \$0-resonance;
#X obj 621 217 line~;
#X obj 621 311 clip~ 0.5 3.5;
#X obj 621 259 +~;
#X obj 312 195 f;
#X obj 436 175 *;
#X obj 312 102 r \$0-trig_gui;
#X obj 436 102 r \$0-randomBuffer;
#X obj 454 133 r \$0-cutoffRandAmt;
#X obj 125 216 +~;
#X obj 312 216 * 127;
#X obj 125 279 clip~ 0 24000;
#X obj 125 258 +~;
#X obj 312 237 mtof~;
#X obj 752 195 f;
#X obj 876 175 *;
#X obj 752 102 r \$0-trig_gui;
#X obj 876 102 r \$0-randomBuffer;
#X obj 894 133 r \$0-resonanceRandAmt;
#X obj 752 237 sig~;
#X obj 752 216 * 3;
#X obj 894 154 t b f;
#X obj 454 154 t b f;
#X obj 99 494 line~;
#X obj 188 411 r \$0-filter;
#X obj 188 432 t f f;
#X obj 81 515 *~;
#X obj 202 515 *~;
#X obj 220 494 line~;
#X obj 99 452 == 0;
#X obj 249 300 +~;
#X obj 169 332 +~;
#X obj 297 332 +~;
#X obj 99 473 pack 0 5;
#X obj 220 473 pack 0 5;
#X obj 621 196 pack 0 5;
#X obj 125 153 pack 0 5;
#X obj 81 353 else/lowpass~;
#X obj 81 374 else/lowpass~;
#X obj 202 353 else/highpass~;
#X obj 202 374 else/highpass~;
#X connect 0 0 7 0;
#X connect 1 0 2 0;
#X connect 2 0 45 0;
#X connect 3 0 1 0;
#X connect 4 0 46 0;
#X connect 6 0 47 0;
#X connect 6 0 49 0;
#X connect 7 0 19 0;
#X connect 8 0 19 1;
#X connect 9 0 4 0;
#X connect 10 0 3 0;
#X connect 11 0 13 0;
#X connect 12 0 42 0;
#X connect 12 0 41 0;
#X connect 13 0 12 0;
#X connect 14 0 20 0;
#X connect 15 0 14 1;
#X connect 16 0 14 0;
#X connect 17 0 15 0;
#X connect 18 0 32 0;
#X connect 19 0 22 0;
#X connect 20 0 23 0;
#X connect 21 0 40 0;
#X connect 21 0 47 1;
#X connect 21 0 48 1;
#X connect 22 0 21 0;
#X connect 23 0 22 1;
#X connect 24 0 30 0;
#X connect 25 0 24 1;
#X connect 26 0 24 0;
#X connect 27 0 25 0;
#X connect 28 0 31 0;
#X connect 29 0 13 1;
#X connect 30 0 29 0;
#X connect 31 0 25 0;
#X connect 31 1 25 1;
#X connect 32 0 15 0;
#X connect 32 1 15 1;
#X connect 33 0 36 1;
#X connect 34 0 35 0;
#X connect 35 0 39 0;
#X connect 35 1 44 0;
#X connect 36 0 5 0;
#X connect 37 0 5 0;
#X connect 38 0 37 1;
#X connect 39 0 43 0;
#X connect 40 0 49 1;
#X connect 40 0 50 1;
#X connect 41 0 47 2;
#X connect 41 0 48 2;
#X connect 42 0 49 2;
#X connect 42 0 50 2;
#X connect 43 0 33 0;
#X connect 44 0 38 0;
#X connect 45 0 11 0;
#X connect 46 0 0 0;
#X connect 47 0 48 0;
#X connect 48 0 36 0;
#X connect 49 0 50 0;
#X connect 50 0 37 0;
#X restore 526 246 pd FILTER;
#N canvas 276 171 319 365 DRIVE 0;
#X obj 178 171 line~;
#X obj 90 51 inlet~;
#X obj 178 108 * 2;
#X obj 178 129 + 1;
#X obj 90 284 outlet~;
#X obj 178 87 r \$0-drive;
#X obj 178 150 pack 0 5;
#X obj 90 202 else/drive~ 1;
#X obj 90 223 else/drive~ 1;
#X connect 0 0 7 1;
#X connect 0 0 8 1;
#X connect 1 0 7 0;
#X connect 2 0 3 0;
#X connect 3 0 6 0;
#X connect 5 0 2 0;
#X connect 6 0 0 0;
#X connect 7 0 8 0;
#X connect 8 0 4 0;
#X restore 526 339 pd DRIVE;
#N canvas 737 304 693 357 XFADE 0;
#X obj 67 47 inlet~;
#X obj 144 47 inlet~;
#X obj 67 285 outlet~;
#X obj 237 47 r \$0-noise;
#X obj 237 224 clip~ -1 1;
#X obj 237 203 +~;
#X obj 237 79 * 2;
#X obj 237 100 - 1;
#X obj 237 142 line~;
#X obj 362 161 * 2;
#X obj 362 182 sig~;
#X obj 362 140 f;
#X obj 486 120 *;
#X obj 362 47 r \$0-trig_gui;
#X obj 486 47 r \$0-randomBuffer;
#X obj 504 78 r \$0-noiseRandAmt;
#X obj 504 99 t b f;
#X obj 237 121 pack 0 5;
#X obj 67 244 else/xfade~;
#X connect 0 0 18 0;
#X connect 1 0 18 1;
#X connect 3 0 6 0;
#X connect 4 0 18 2;
#X connect 5 0 4 0;
#X connect 6 0 7 0;
#X connect 7 0 17 0;
#X connect 8 0 5 0;
#X connect 9 0 10 0;
#X connect 10 0 5 1;
#X connect 11 0 9 0;
#X connect 12 0 11 1;
#X connect 13 0 11 0;
#X connect 14 0 12 0;
#X connect 15 0 16 0;
#X connect 16 0 12 0;
#X connect 16 1 12 1;
#X connect 17 0 8 0;
#X connect 18 0 2 0;
#X restore 526 215 pd XFADE;
#N canvas 522 161 1500 739 MACHINE 0;
#X obj 511 287 sel 0;
#X obj 511 308 t b b;
#X floatatom 195 608 5 0 0 0 - - - 0;
#X obj 195 349 f;
#X obj 221 349 + 1;
#X obj 218 504 random 100;
#X obj 218 546 array set \$0-buffer;
#X msg 235 328 0;
#X obj 257 462 == 0;
#X obj 218 483 spigot;
#X floatatom 195 412 5 0 0 0 - - - 0;
#X obj 1218 237 bng 20 250 50 0 empty empty empty 0 -10 0 12 #fcfcfc #000000 #000000;
#X floatatom 945 557 5 0 0 0 - - - 0;
#X obj 945 587 >= 1;
#X obj 945 608 sel 1;
#X obj 945 629 bng 20 250 50 0 empty empty empty 0 -10 0 12 #fcfcfc #000000 #000000;
#X obj 1218 216 sel 0;
#X obj 1099 330 until;
#X obj 1099 351 f;
#X obj 1099 372 t f f;
#X obj 1125 351 + 1;
#X msg 1139 330 0;
#X obj 1099 484 max;
#X obj 1099 505 t f f;
#X msg 1117 463 0;
#X obj 1099 526 change;
#X obj 1008 567 *;
#X obj 1099 547 t b f;
#X obj 1099 299 t f b b;
#X obj 1099 423 tabread \$0-skips;
#X obj 945 526 tabread \$0-skips;
#X obj 195 587 tabread \$0-buffer;
#X obj 1099 278 f;
#X obj 759 587 random 100;
#X obj 759 608 moses 0;
#X obj 1070 132 r \$0-skips;
#X obj 844 566 * 100;
#X obj 844 587 int;
#X obj 759 629 bng 20 250 50 0 empty empty empty 0 -10 0 12 #fcfcfc #000000 #000000;
#X obj 844 524 - 1;
#X obj 844 545 abs;
#X obj 759 452 t b f;
#X obj 759 473 spigot;
#X obj 945 473 spigot;
#X obj 952 379 r \$0-steps;
#X obj 952 400 > 0;
#X obj 952 421 t f f;
#X obj 952 442 == 0;
#X text 756 402 RANDOM + PROB (0 STEPS), f 13;
#X obj 759 650 s \$0-trig_gui_set;
#X obj 195 658 s \$0-randomBuffer;
#X obj 1172 195 t f f f;
#X obj 195 370 % 32;
#X obj 218 525 / 100;
#X obj 613 140 r \$0-stepsNum;
#X obj 613 161 int;
#X obj 471 203 clip 0 32;
#X obj 471 224 t f f;
#X obj 471 140 r \$0-steps;
#X obj 471 182 int;
#X obj 471 161 * 32;
#X obj 109 132 tgl 20 0 empty empty empty 0 -10 0 12 #fcfcfc #000000 #000000 0 1;
#X obj 195 215 metro 200;
#X obj 273 68 r \$0-BPM;
#X msg 255 173 60000 \$1;
#X obj 255 194 /;
#X obj 273 131 * 4;
#X obj 290 110 t b f;
#X obj 290 89 r \$0-BPM_mult;
#X obj 109 194 == 0;
#X obj 218 267 s \$0-clockOut;
#X obj 255 152 f;
#X text 270 33 SÓ ATUALIZA BPM NO CLOCK;
#X obj 195 236 t b b b;
#X obj 235 307 r \$0-rw_gui;
#X obj 1172 174 change -1;
#X text 468 105 MECANISMO DE STEPS;
#X text 949 329 RANDOM SKIPS (STEPS > 0), f 12;
#X obj 471 266 t f f f f;
#X text 1256 237 RANDOMIZA SKIPS;
#X obj 1288 216 r \$0-randomSkips_gui;
#X obj 109 153 t f f f;
#X obj 109 111 r \$0-clock_gui;
#X obj 1070 153 route normalize;
#X text 849 126 FILTRA CONTROLE POR CONTA DA REDUNDÂNCIA ENTRE O ARRAY E O PARAM COM MESMO NOME, f 28;
#X obj 613 245 s \$0-stepsNum_set;
#X obj 613 203 s \$0-steps-;
#X obj 613 182 / 32;
#X obj 195 432 t f b f;
#X msg 155 638 0;
#X obj 155 174 sel 0 1;
#X text 336 643 RESETA VALOR DO RANDOM QUANDO DESLIGA SEQUENCIADOR, f 27;
#X obj 56 68 r \$0-tick;
#X obj 56 89 bang;
#X obj 195 391 t f f f;
#X obj 312 411 sel 0;
#X obj 312 432 s \$0-startOut;
#X obj 1218 258 t b b b;
#N canvas 547 155 317 390 OLD 0;
#X obj 100 160 until;
#X obj 100 181 f;
#X obj 100 202 t f f;
#X obj 126 181 + 1;
#X obj 100 223 t b f;
#X obj 100 244 random 100;
#X obj 100 286 array set \$0-buffer;
#X msg 140 160 0;
#X msg 100 139 32;
#X obj 100 265 / 100;
#X obj 100 118 t b b;
#X obj 100 77 inlet;
#X connect 0 0 1 0;
#X connect 1 0 2 0;
#X connect 2 0 4 0;
#X connect 2 1 3 0;
#X connect 3 0 1 1;
#X connect 4 0 5 0;
#X connect 4 1 6 1;
#X connect 5 0 9 0;
#X connect 7 0 1 1;
#X connect 8 0 0 0;
#X connect 9 0 6 0;
#X connect 10 0 8 0;
#X connect 10 1 7 0;
#X connect 11 0 10 0;
#X restore 543 391 pd OLD RAND;
#N canvas 902 0 659 828 SKIPS_PATTERN 0;
#X obj 174 550 t f f;
#X obj 198 325 list;
#X obj 121 233 random 100;
#X obj 121 254 moses 50;
#X obj 121 325 list;
#X obj 198 304 list append;
#X obj 121 356 route bang;
#X msg 121 377 0;
#X obj 188 377 t a a;
#X obj 269 398 list length;
#X obj 269 436 random;
#X obj 228 488 list split 1;
#X obj 269 417 t b f;
#X text 284 467 CORTA LISTA;
#X obj 188 467 list split 0;
#X text 324 488 TOMA PRIMEIRO ITEM DA LISTA RESTANTE;
#X text 322 417 GERA PONTO DE CORTE DA LISTA ENTRE 0 E (TAMANHO - 1), f 28;
#X text 213 356 CONVERTE LISTA VAZIA EM 0;
#X text 221 550 ENVIA PARA TABELA E PARA MEMÓRIA TEMPORÁRIA;
#X text 231 266 PORCENTAGEM DE CHANCE DE REPETIR UM DOS NÚMEROS DA MEMÓRIA TEMPORÁRIA, f 35;
#X obj 174 275 bang;
#X obj 121 275 bang;
#X obj 121 191 f;
#X obj 147 191 + 1;
#X msg 141 170 0;
#X text 350 633 ESCREVE NA TABELA;
#X obj 173 612 t b f;
#X obj 79 171 t b;
#X obj 79 719 spigot 1;
#X obj 121 212 t b f f;
#X obj 79 677 del 0;
#X text 76 743 LOOP A CADA BLOCO DE ÁUDIO - GARANTIDO PELO [del 0], f 26;
#X obj 121 97 bng 20 250 50 0 empty empty empty 0 -10 0 12 #fcfcfc #000000 #000000;
#X obj 121 118 f 32;
#X text 256 529 SORTEIA VALOR;
#X obj 132 677 < 31;
#X text 173 677 MÁXIMO DE STEPS - 1;
#X obj 174 529 random 100;
#X obj 174 591 / 100;
#X obj 121 139 t b b b b;
#X text 221 591 NORMALIZA DE 0 - 1;
#X obj 206 213 random 30;
#X obj 206 234 + 30;
#X text 281 213 RANDOMIZA PORCENTAGEM ENTRE 30-60%;
#X text 242 86 ** GERADOR DE PATTERN DO BUFFER;
#X obj 121 56 inlet BANG;
#X obj 205 633 array set \$0-skips;
#X obj 132 698 t f f;
#X obj 301 719 sel 0;
#X obj 301 761 s \$0-skips;
#X msg 301 740 normalize 1;
#X text 348 719 NORMALIZA ARRAY;
#X connect 0 0 38 0;
#X connect 0 1 5 0;
#X connect 1 0 5 1;
#X connect 2 0 3 0;
#X connect 3 0 21 0;
#X connect 3 1 20 0;
#X connect 4 0 6 0;
#X connect 5 0 1 0;
#X connect 5 0 4 1;
#X connect 6 0 7 0;
#X connect 6 1 8 0;
#X connect 7 0 0 0;
#X connect 8 0 14 0;
#X connect 8 1 9 0;
#X connect 9 0 12 0;
#X connect 10 0 14 1;
#X connect 11 0 0 0;
#X connect 12 0 10 0;
#X connect 12 1 10 1;
#X connect 14 1 11 0;
#X connect 20 0 37 0;
#X connect 21 0 4 0;
#X connect 22 0 23 0;
#X connect 22 0 29 0;
#X connect 23 0 22 1;
#X connect 24 0 22 1;
#X connect 26 0 30 0;
#X connect 26 1 46 0;
#X connect 27 0 22 0;
#X connect 28 0 27 0;
#X connect 29 0 2 0;
#X connect 29 1 46 1;
#X connect 29 2 35 0;
#X connect 30 0 28 0;
#X connect 32 0 33 0;
#X connect 33 0 39 0;
#X connect 35 0 47 0;
#X connect 37 0 0 0;
#X connect 38 0 26 0;
#X connect 39 0 22 0;
#X connect 39 1 24 0;
#X connect 39 2 41 0;
#X connect 39 3 5 1;
#X connect 41 0 42 0;
#X connect 42 0 3 1;
#X connect 45 0 32 0;
#X connect 47 0 28 1;
#X connect 47 1 48 0;
#X connect 48 0 50 0;
#X connect 50 0 49 0;
#X restore 1264 279 pd SKIPS_PATTERN;
#N canvas 686 21 691 797 BUFFER_PATTERN 0;
#X obj 174 529 t f f;
#X obj 198 304 list;
#X obj 121 212 random 100;
#X obj 121 233 moses 50;
#X obj 121 304 list;
#X obj 198 283 list append;
#X obj 121 335 route bang;
#X msg 121 356 0;
#X obj 188 356 t a a;
#X obj 269 377 list length;
#X obj 269 415 random;
#X obj 228 467 list split 1;
#X obj 269 396 t b f;
#X text 284 446 CORTA LISTA;
#X obj 188 446 list split 0;
#X text 324 467 TOMA PRIMEIRO ITEM DA LISTA RESTANTE;
#X text 322 396 GERA PONTO DE CORTE DA LISTA ENTRE 0 E (TAMANHO - 1), f 28;
#X text 213 335 CONVERTE LISTA VAZIA EM 0;
#X text 221 529 ENVIA PARA TABELA E PARA MEMÓRIA TEMPORÁRIA;
#X text 231 245 PORCENTAGEM DE CHANCE DE REPETIR UM DOS NÚMEROS DA MEMÓRIA TEMPORÁRIA, f 35;
#X obj 174 254 bang;
#X obj 121 254 bang;
#X obj 121 170 f;
#X obj 147 170 + 1;
#X msg 141 149 0;
#X text 350 612 ESCREVE NA TABELA;
#X obj 173 591 t b f;
#X obj 79 150 t b;
#X obj 79 698 spigot 1;
#X obj 121 191 t b f f;
#X obj 79 656 del 0;
#X text 76 722 LOOP A CADA BLOCO DE ÁUDIO - GARANTIDO PELO [del 0], f 26;
#X obj 121 97 bng 20 250 50 0 empty empty empty 0 -10 0 12 #fcfcfc #000000 #000000;
#X text 256 508 SORTEIA VALOR;
#X obj 132 656 < 31;
#X text 173 656 MÁXIMO DE STEPS - 1;
#X obj 174 508 random 100;
#X obj 174 570 / 100;
#X obj 121 118 t b b b b;
#X text 221 570 NORMALIZA DE 0 - 1;
#X obj 206 192 random 30;
#X obj 206 213 + 30;
#X text 281 192 RANDOMIZA PORCENTAGEM ENTRE 30-60%;
#X text 242 86 ** GERADOR DE PATTERN DO BUFFER;
#X obj 121 56 inlet BANG;
#X obj 132 677 t f f;
#X obj 301 698 sel 0;
#X obj 205 612 array set \$0-buffer;
#N canvas 174 144 632 542 STRETCH_ARRAY 0;
#X msg 82 417 normalize 1;
#X obj 82 438 s \$0-buffer;
#X obj 275 168 until;
#X obj 275 189 f;
#X obj 275 210 t f f;
#X obj 301 189 + 1;
#X msg 315 168 0;
#X obj 275 294 t f f;
#X obj 275 315 change;
#X obj 275 126 t b b b;
#X msg 275 147 32;
#X obj 275 231 tabread \$0-buffer;
#X floatatom 275 336 5 0 0 0 - - - 0;
#X obj 275 273 min;
#X msg 293 252 1;
#X obj 105 271 until;
#X obj 105 292 f;
#X obj 131 292 + 1;
#X msg 145 271 0;
#X msg 105 250 32;
#X obj 105 334 tabread \$0-buffer;
#X obj 82 84 bng 20 250 50 0 empty empty empty 0 -10 0 12 #fcfcfc #000000 #000000;
#X obj 105 355 -;
#X obj 105 376 tabwrite \$0-buffer;
#X obj 105 313 t f f f;
#X obj 105 229 t b b;
#X obj 82 105 t b b b;
#X obj 82 43 inlet;
#X text 318 273 IDENTIFICA MENOR VALOR DA TABELA;
#X text 253 376 SUBTRAI MENOR VALOR DE TODOS OS ÍNDICES;
#X text 181 438 NORMALIZA TABELA;
#X connect 0 0 1 0;
#X connect 2 0 3 0;
#X connect 3 0 4 0;
#X connect 4 0 11 0;
#X connect 4 1 5 0;
#X connect 5 0 3 1;
#X connect 6 0 3 1;
#X connect 7 0 8 0;
#X connect 7 1 13 1;
#X connect 8 0 12 0;
#X connect 9 0 10 0;
#X connect 9 1 6 0;
#X connect 9 2 14 0;
#X connect 10 0 2 0;
#X connect 11 0 13 0;
#X connect 12 0 22 1;
#X connect 13 0 7 0;
#X connect 14 0 13 1;
#X connect 15 0 16 0;
#X connect 16 0 24 0;
#X connect 17 0 16 1;
#X connect 18 0 16 1;
#X connect 19 0 15 0;
#X connect 20 0 22 0;
#X connect 21 0 26 0;
#X connect 22 0 23 0;
#X connect 24 0 20 0;
#X connect 24 1 23 1;
#X connect 24 2 17 0;
#X connect 25 0 19 0;
#X connect 25 1 18 0;
#X connect 26 0 0 0;
#X connect 26 1 25 0;
#X connect 26 2 9 0;
#X connect 27 0 21 0;
#X restore 301 719 pd STRETCH_ARRAY;
#X text 347 698 ESTICA ARRAY PARA VALORES ENTRE 0 E 1;
#X connect 0 0 37 0;
#X connect 0 1 5 0;
#X connect 1 0 5 1;
#X connect 2 0 3 0;
#X connect 3 0 21 0;
#X connect 3 1 20 0;
#X connect 4 0 6 0;
#X connect 5 0 1 0;
#X connect 5 0 4 1;
#X connect 6 0 7 0;
#X connect 6 1 8 0;
#X connect 7 0 0 0;
#X connect 8 0 14 0;
#X connect 8 1 9 0;
#X connect 9 0 12 0;
#X connect 10 0 14 1;
#X connect 11 0 0 0;
#X connect 12 0 10 0;
#X connect 12 1 10 1;
#X connect 14 1 11 0;
#X connect 20 0 36 0;
#X connect 21 0 4 0;
#X connect 22 0 23 0;
#X connect 22 0 29 0;
#X connect 23 0 22 1;
#X connect 24 0 22 1;
#X connect 26 0 30 0;
#X connect 26 1 47 0;
#X connect 27 0 22 0;
#X connect 28 0 27 0;
#X connect 29 0 2 0;
#X connect 29 1 47 1;
#X connect 29 2 34 0;
#X connect 30 0 28 0;
#X connect 32 0 38 0;
#X connect 34 0 45 0;
#X connect 36 0 0 0;
#X connect 37 0 26 0;
#X connect 38 0 22 0;
#X connect 38 1 24 0;
#X connect 38 2 40 0;
#X connect 38 3 5 1;
#X connect 40 0 41 0;
#X connect 41 0 3 1;
#X connect 44 0 32 0;
#X connect 45 0 28 1;
#X connect 45 1 46 0;
#X connect 46 0 48 0;
#X restore 543 350 pd BUFFER_PATTERN;
#X obj 56 215 spigot 1;
#X obj 543 329 bng 20 250 50 0 empty empty empty 0 -10 0 12 #fcfcfc #000000 #000000;
#X text 581 329 RANDOMIZA VALORES DO BUFFER;
#X obj 625 308 r \$0-randomBuffer_gui;
#X text 310 483 SE STEPS = 0 RANDOMIZA PRIMEIRO VALOR DA TABELA EM CADA CLOCK, f 22;
#X obj 1099 247 r \$0-refresh;
#X obj 471 245 change -1;
#X connect 0 0 1 0;
#X connect 1 1 7 0;
#X connect 1 1 102 0;
#X connect 2 0 50 0;
#X connect 3 0 52 0;
#X connect 4 0 3 1;
#X connect 5 0 53 0;
#X connect 7 0 3 1;
#X connect 8 0 9 1;
#X connect 9 0 5 0;
#X connect 10 0 88 0;
#X connect 11 0 97 0;
#X connect 12 0 13 0;
#X connect 13 0 14 0;
#X connect 14 0 15 0;
#X connect 15 0 49 0;
#X connect 16 0 11 0;
#X connect 17 0 18 0;
#X connect 18 0 19 0;
#X connect 19 0 29 0;
#X connect 19 1 20 0;
#X connect 20 0 18 1;
#X connect 21 0 18 1;
#X connect 22 0 23 0;
#X connect 23 0 25 0;
#X connect 23 1 22 1;
#X connect 24 0 22 1;
#X connect 25 0 27 0;
#X connect 26 0 13 1;
#X connect 27 0 26 0;
#X connect 27 1 26 1;
#X connect 28 0 17 0;
#X connect 28 1 21 0;
#X connect 28 2 24 0;
#X connect 29 0 22 0;
#X connect 30 0 12 0;
#X connect 31 0 2 0;
#X connect 32 0 28 0;
#X connect 33 0 34 0;
#X connect 34 0 38 0;
#X connect 35 0 83 0;
#X connect 36 0 37 0;
#X connect 37 0 34 1;
#X connect 38 0 49 0;
#X connect 39 0 40 0;
#X connect 40 0 36 0;
#X connect 41 0 42 0;
#X connect 41 1 43 0;
#X connect 42 0 33 0;
#X connect 43 0 30 0;
#X connect 44 0 45 0;
#X connect 45 0 46 0;
#X connect 46 0 47 0;
#X connect 46 1 43 1;
#X connect 47 0 42 1;
#X connect 51 0 39 0;
#X connect 51 1 26 0;
#X connect 51 2 16 0;
#X connect 52 0 94 0;
#X connect 53 0 6 0;
#X connect 54 0 55 0;
#X connect 55 0 87 0;
#X connect 56 0 57 0;
#X connect 57 0 107 0;
#X connect 57 1 85 0;
#X connect 58 0 60 0;
#X connect 59 0 56 0;
#X connect 60 0 59 0;
#X connect 61 0 81 0;
#X connect 62 0 73 0;
#X connect 63 0 66 0;
#X connect 64 0 65 0;
#X connect 65 0 62 1;
#X connect 66 0 71 1;
#X connect 67 0 66 0;
#X connect 67 1 66 1;
#X connect 68 0 67 0;
#X connect 69 0 101 1;
#X connect 71 0 64 0;
#X connect 73 0 3 0;
#X connect 73 1 70 0;
#X connect 73 2 71 0;
#X connect 74 0 7 0;
#X connect 75 0 51 0;
#X connect 78 0 52 1;
#X connect 78 1 8 0;
#X connect 78 2 0 0;
#X connect 78 3 32 0;
#X connect 80 0 11 0;
#X connect 81 0 69 0;
#X connect 81 1 62 0;
#X connect 81 2 90 0;
#X connect 82 0 61 0;
#X connect 83 1 75 0;
#X connect 87 0 86 0;
#X connect 88 0 31 0;
#X connect 88 1 9 0;
#X connect 88 2 41 0;
#X connect 89 0 50 0;
#X connect 90 0 89 0;
#X connect 90 1 7 0;
#X connect 92 0 93 0;
#X connect 93 0 101 0;
#X connect 94 0 10 0;
#X connect 94 1 4 0;
#X connect 94 2 95 0;
#X connect 95 0 96 0;
#X connect 97 0 32 0;
#X connect 97 2 99 0;
#X connect 101 0 73 0;
#X connect 102 0 100 0;
#X connect 104 0 102 0;
#X connect 106 0 32 0;
#X connect 107 0 78 0;
#X restore 526 50 pd MACHINE;
#N canvas 321 0 1349 1012 \$0-CONTROL 0;
#X obj 711 442 bng 20 250 50 0 empty empty empty 0 -10 0 12 #fcfcfc #000000 #000000;
#X obj 711 514 array get \$0-buffer;
#X obj 711 556 array set \$0-buffer;
#X obj 961 514 array get \$0-skips;
#X obj 961 556 array set \$0-skips;
#X obj 120 39 inlet CONTROL;
#N canvas 672 72 651 358 PARAMER 0;
#X obj 105 77 bng 20 250 50 0 empty empty empty 0 -10 0 12 #fcfcfc #000000 #000000;
#X obj 191 77 bng 20 250 50 0 empty empty empty 0 -10 0 12 #fcfcfc #000000 #000000;
#X obj 277 77 bng 20 250 50 0 empty empty empty 0 -10 0 12 #fcfcfc #000000 #000000;
#X obj 105 98 paramer \\\$0-memo \\\$0-MAIN;
#X msg 105 129 \\\$0-freq f \\\; \\\$0-note f 24 \\\; \\\$0-freqDecay f 0 \\\; \\\$0-freqEnvAmt f 0 \\\; \\\$0-freqRandAmt f 0 \\\; \\\$0-wave f 0 \\\; \\\$0-noiseType f 0 \\\; \\\$0-noise f 0 \\\; \\\$0-noiseRandAmt f 0 \\\; \\\$0-filter f 0 \\\; \\\$0-cutoff f 1 \\\; \\\$0-cutoffDecay f 0 \\\; \\\$0-cutoffEnvAmt f 0 \\\; \\\$0-cutoffRandAmt f 0 \\\; \\\$0-resonance f 0 \\\; \\\$0-resonanceRandAmt f 0 \\\; \\\$0-comb f 0 \\\; \\\$0-crusher f 0 \\\; \\\$0-drive f 0 \\\; \\\$0-amp f 1 \\\; \\\$0-decay f 0.2 \\\; \\\$0-decayRandAmt f 0 \\\; \\\$0-steps f 0 \\\; \\\$0-stepsNum f 0 \\\; \\\$0-skips f 0 \\\; \\\$0-BPM f 140 \\\; \\\$0-BPM_mult f 4 \\\; \\\$0-scale f 0 \\\; \\\$0-bufferArray l \\\; \\\$0-skipsArray l \\\;;
#X connect 0 0 3 0;
#X connect 1 0 3 1;
#X connect 2 0 3 2;
#X connect 3 0 4 0;
#X connect 4 0 3 2;
#X restore 629 342 pd PARAMER;
#X obj 752 349 r \$0-reset_gui;
#X msg 752 370 reset;
#X obj 120 141 param \$0-freq \$0-memo 0;
#X floatatom 50 141 5 0 0 0 - \$0-freq_gui_set \$0-freq_gui 0;
#X obj 120 171 param \$0-note \$0-memo 1 24;
#X floatatom 50 171 5 0 0 0 - \$0-note_gui_set \$0-note_gui 0;
#X obj 120 201 param \$0-freqDecay \$0-memo 2 0;
#X floatatom 50 201 5 0 0 0 - \$0-freqDecay_gui_set \$0-freqDecay_gui 0;
#X obj 120 231 param \$0-freqEnvAmt \$0-memo 3 0;
#X floatatom 50 231 5 0 0 0 - \$0-freqEnvAmt_gui_set \$0-freqEnvAmt_gui 0;
#X obj 120 261 param \$0-freqRandAmt \$0-memo 4 0;
#X floatatom 50 261 5 0 0 0 - \$0-freqRandAmt_gui_set \$0-freqRandAmt_gui 0;
#X obj 120 291 param \$0-wave \$0-memo 5 0;
#X floatatom 50 291 5 0 0 0 - \$0-wave_gui_set \$0-wave_gui 0;
#X obj 120 321 param \$0-noiseType \$0-memo 6 0;
#X floatatom 50 321 5 0 0 0 - \$0-noiseType_gui_set \$0-noiseType_gui 0;
#X obj 120 351 param \$0-noise \$0-memo 7 0;
#X floatatom 50 351 5 0 0 0 - \$0-noise_gui_set \$0-noise_gui 0;
#X obj 120 381 param \$0-noiseRandAmt \$0-memo 8 0;
#X floatatom 50 381 5 0 0 0 - \$0-noiseRandAmt_gui_set \$0-noiseRandAmt_gui 0;
#X obj 120 411 param \$0-filter \$0-memo 9 0;
#X floatatom 50 411 5 0 0 0 - \$0-filter_gui_set \$0-filter_gui 0;
#X obj 120 441 param \$0-cutoff \$0-memo 10 1;
#X floatatom 50 441 5 0 0 0 - \$0-cutoff_gui_set \$0-cutoff_gui 0;
#X obj 120 471 param \$0-cutoffDecay \$0-memo 11 0;
#X floatatom 50 471 5 0 0 0 - \$0-cutoffDecay_gui_set \$0-cutoffDecay_gui 0;
#X obj 120 501 param \$0-cutoffEnvAmt \$0-memo 12 0;
#X floatatom 50 501 5 0 0 0 - \$0-cutoffEnvAmt_gui_set \$0-cutoffEnvAmt_gui 0;
#X obj 120 531 param \$0-cutoffRandAmt \$0-memo 13 0;
#X floatatom 50 531 5 0 0 0 - \$0-cutoffRandAmt_gui_set \$0-cutoffRandAmt_gui 0;
#X obj 120 561 param \$0-resonance \$0-memo 14 0;
#X floatatom 50 561 5 0 0 0 - \$0-resonance_gui_set \$0-resonance_gui 0;
#X obj 120 591 param \$0-resonanceRandAmt \$0-memo 15 0;
#X floatatom 50 591 5 0 0 0 - \$0-resonanceRandAmt_gui_set \$0-resonanceRandAmt_gui 0;
#X obj 120 621 param \$0-comb \$0-memo 16 0;
#X floatatom 50 621 5 0 0 0 - \$0-comb_gui_set \$0-comb_gui 0;
#X obj 120 651 param \$0-crusher \$0-memo 17 0;
#X floatatom 50 651 5 0 0 0 - \$0-crusher_gui_set \$0-crusher_gui 0;
#X obj 120 681 param \$0-drive \$0-memo 18 0;
#X floatatom 50 681 5 0 0 0 - \$0-drive_gui_set \$0-drive_gui 0;
#X obj 120 711 param \$0-amp \$0-memo 19 1;
#X floatatom 50 711 5 0 0 0 - \$0-amp_gui_set \$0-amp_gui 0;
#X obj 120 741 param \$0-decay \$0-memo 20 0.2;
#X floatatom 50 741 5 0 0 0 - \$0-decay_gui_set \$0-decay_gui 0;
#X obj 120 771 param \$0-decayRandAmt \$0-memo 21 0;
#X floatatom 50 771 5 0 0 0 - \$0-decayRandAmt_gui_set \$0-decayRandAmt_gui 0;
#X obj 120 801 param \$0-steps \$0-memo 22 0;
#X floatatom 50 801 5 0 0 0 - \$0-steps_gui_set \$0-steps_gui 0;
#X obj 120 831 param \$0-stepsNum \$0-memo 23 0;
#X floatatom 50 831 5 0 0 0 - \$0-stepsNum_gui_set \$0-stepsNum_gui 0;
#X obj 120 861 param \$0-skips \$0-memo 24 0;
#X floatatom 50 861 5 0 0 0 - \$0-skips_gui_set \$0-skips_gui 0;
#X obj 120 891 param \$0-BPM \$0-memo 25 140;
#X floatatom 50 891 5 0 0 0 - \$0-BPM_gui_set \$0-BPM_gui 0;
#X obj 120 921 param \$0-BPM_mult \$0-memo 26 4;
#X floatatom 50 921 5 0 0 0 - \$0-BPM_mult_gui_set \$0-BPM_mult_gui 0;
#X obj 120 951 param \$0-scale \$0-memo 27 0;
#X floatatom 50 951 5 0 0 0 - \$0-scale_gui_set \$0-scale_gui 0;
#X obj 711 535 param \$0-bufferArray \$0-memo 28;
#X obj 961 535 param \$0-skipsArray \$0-memo 29;
#X obj 629 401 memo \$0-memo 30 \$1;
#X obj 120 70 route freq note freqDecay freqEnvAmt freqRandAmt wave noiseType noise noiseRandAmt filter cutoff cutoffDecay cutoffEnvAmt cutoffRandAmt resonance resonanceRandAmt comb crusher drive amp decay decayRandAmt steps stepsNum skips BPM BPM_mult scale bufferArray skipsArray, f 91;
#X obj 754 121 route float clock tick bang trig rw randomBuffer randomSkips reset, f 66;
#X obj 754 213 t b f;
#X obj 754 255 s \$0-trig_gui_set;
#X obj 805 203 s \$0-clock_gui_set;
#X obj 786 234 s \$0-note-;
#X obj 856 172 s \$0-tick;
#X obj 958 255 s \$0-trig_gui_set;
#X obj 1009 224 s \$0-rw_gui_set;
#X obj 1060 193 s \$0-randomBuffer_gui_set;
#X obj 1111 162 s \$0-randomSkips_gui_set;
#X obj 961 421 s \$0-refresh;
#X text 959 366 ATUALIZA SKIPS QUANDO MUDA PRESET (BUG SOLVE), f 18;
#X obj 711 463 t b b;
#X connect 0 0 81 0;
#X connect 1 0 65 0;
#X connect 3 0 66 0;
#X connect 5 0 68 0;
#X connect 7 0 8 0;
#X connect 8 0 67 1;
#X connect 65 0 2 0;
#X connect 66 0 4 0;
#X connect 67 2 0 0;
#X connect 67 3 79 0;
#X connect 68 0 9 0;
#X connect 68 1 11 0;
#X connect 68 2 13 0;
#X connect 68 3 15 0;
#X connect 68 4 17 0;
#X connect 68 5 19 0;
#X connect 68 6 21 0;
#X connect 68 7 23 0;
#X connect 68 8 25 0;
#X connect 68 9 27 0;
#X connect 68 10 29 0;
#X connect 68 11 31 0;
#X connect 68 12 33 0;
#X connect 68 13 35 0;
#X connect 68 14 37 0;
#X connect 68 15 39 0;
#X connect 68 16 41 0;
#X connect 68 17 43 0;
#X connect 68 18 45 0;
#X connect 68 19 47 0;
#X connect 68 20 49 0;
#X connect 68 21 51 0;
#X connect 68 22 53 0;
#X connect 68 23 55 0;
#X connect 68 24 57 0;
#X connect 68 25 59 0;
#X connect 68 26 61 0;
#X connect 68 27 63 0;
#X connect 68 28 65 0;
#X connect 68 29 66 0;
#X connect 68 30 69 0;
#X connect 69 0 70 0;
#X connect 69 1 72 0;
#X connect 69 2 74 0;
#X connect 69 3 74 0;
#X connect 69 4 75 0;
#X connect 69 5 76 0;
#X connect 69 6 77 0;
#X connect 69 7 78 0;
#X connect 69 8 8 0;
#X connect 70 0 71 0;
#X connect 70 1 73 0;
#X connect 81 0 1 0;
#X connect 81 1 3 0;
#X restore 874 90 pd \$0-CONTROL;
#X obj 874 49 inlet CONTROL;
#X obj 526 442 clip~ -1 1;
#X obj 526 421 hip~ 5;
#X obj 526 584 outlet~;
#X obj 758 462 r \$0-trig_gui;
#N canvas 1217 284 647 589 AMP 0;
#X obj 90 297 *~;
#X obj 313 257 + 10;
#X obj 313 80 pow 2;
#X obj 90 62 inlet~;
#X obj 90 520 outlet~;
#X obj 313 59 r \$0-decay;
#X obj 151 112 r \$0-trig_gui;
#X obj 90 459 *~;
#X obj 151 396 r \$0-amp;
#X obj 151 438 line~;
#X obj 411 174 *;
#X obj 411 59 r \$0-randomBuffer;
#X obj 429 153 t b f;
#X obj 429 90 r \$0-decayRandAmt;
#X obj 313 215 +;
#X obj 411 195 t b f;
#X obj 313 236 * 2990;
#X obj 429 111 pow 2;
#X obj 429 132 * 0.5;
#X obj 151 417 pack 0 5;
#X obj 151 246 else/timed.gate~ 3;
#X obj 151 277 else/asr~ 3 300;
#X connect 0 0 7 0;
#X connect 1 0 21 2;
#X connect 2 0 14 0;
#X connect 3 0 0 0;
#X connect 5 0 2 0;
#X connect 6 0 20 0;
#X connect 7 0 4 0;
#X connect 8 0 19 0;
#X connect 9 0 7 1;
#X connect 10 0 15 0;
#X connect 11 0 10 0;
#X connect 12 0 10 0;
#X connect 12 1 10 1;
#X connect 13 0 17 0;
#X connect 14 0 16 0;
#X connect 15 0 14 0;
#X connect 15 1 14 1;
#X connect 16 0 1 0;
#X connect 17 0 18 0;
#X connect 18 0 12 0;
#X connect 19 0 9 0;
#X connect 20 0 21 0;
#X connect 21 0 0 1;
#X restore 526 370 pd AMP;
#N canvas 676 203 317 340 CRUSHER 0;
#X obj 100 70 inlet~;
#X obj 100 240 outlet~;
#X obj 144 118 r \$0-crusher;
#X obj 144 160 line~;
#X obj 144 139 pack 0 5;
#X obj 100 181 else/crusher~;
#X connect 0 0 5 0;
#X connect 2 0 4 0;
#X connect 3 0 5 1;
#X connect 4 0 3 0;
#X connect 5 0 1 0;
#X restore 526 308 pd CRUSHER;
#N canvas 264 136 353 404 COMB 0;
#X obj 71 305 outlet~;
#X obj 71 58 inlet~;
#X obj 71 239 else/comb.filt~ 0 0;
#X obj 201 155 r \$0-comb;
#X obj 201 218 line~;
#X obj 137 58 inlet~ FREQ;
#X obj 201 176 * 500;
#X obj 201 197 pack 0 5;
#X connect 1 0 2 0;
#X connect 2 0 0 0;
#X connect 3 0 6 0;
#X connect 4 0 2 2;
#X connect 5 0 2 1;
#X connect 6 0 7 0;
#X connect 7 0 4 0;
#X restore 526 277 pd COMB;
#N canvas 0 0 453 270 NOISE 0;
#X obj 90 176 outlet~;
#X obj 90 63 noise~;
#X obj 90 125 *~;
#X obj 150 125 *~;
#X obj 255 63 r \$0-noiseType;
#X obj 108 104 == 0;
#X obj 255 84 t f f;
#X obj 150 63 else/gray~;
#X connect 1 0 2 0;
#X connect 2 0 0 0;
#X connect 3 0 0 0;
#X connect 4 0 6 0;
#X connect 5 0 2 1;
#X connect 6 0 5 0;
#X connect 6 1 3 1;
#X connect 7 0 3 0;
#X restore 579 194 pd NOISE;
#X obj 51 71 cnv 20 413 491 empty empty empty 20 12 0 12 #dfdfdf #404040 0;
#X obj 60 176 cnv 20 395 102 empty empty empty 20 12 0 12 #ffffff #404040 0;
#X obj 131 408 else/knob 50 0 1 0 0 \$0-cutoffRandAmt_gui \$0-cutoffRandAmt_gui_set #606060 #9f9f9f #ffffff 0 0 0 0 1 320 0 0 0;
#X obj 70 318 else/knob 50 0 1 0 0 \$0-freq_gui \$0-freq_gui_set #606060 #9f9f9f #ffffff 0 0 0 0 1 320 0 0 0;
#X obj 192 318 else/knob 50 0 1 0 0 \$0-freqDecay_gui \$0-freqDecay_gui_set #606060 #9f9f9f #ffffff 0 0 0 0 1 320 0 0 0;
#X obj 253 318 else/knob 50 0 1 0 0 \$0-freqEnvAmt_gui \$0-freqEnvAmt_gui_set #606060 #9f9f9f #ffffff 0 0 0 0 1 320 0 0 0;
#X obj 131 318 else/knob 50 0 1 0 0 \$0-freqRandAmt_gui \$0-freqRandAmt_gui_set #606060 #9f9f9f #ffffff 0 0 0 0 1 320 0 0 0;
#X text 196 293 DECAY;
#X text 251 293 ENV.AMT;
#X text 130 293 RND.AMT;
#X obj 70 408 else/knob 50 0 1 0 0 \$0-cutoff_gui \$0-cutoff_gui_set #606060 #9f9f9f #ffffff 0 0 0 0 1 320 0 0 0;
#X obj 192 408 else/knob 50 0 1 0 0 \$0-cutoffDecay_gui \$0-cutoffDecay_gui_set #606060 #9f9f9f #ffffff 0 0 0 0 1 320 0 0 0;
#X obj 253 408 else/knob 50 0 1 0 0 \$0-cutoffEnvAmt_gui \$0-cutoffEnvAmt_gui_set #606060 #9f9f9f #ffffff 0 0 0 0 1 320 0 0 0;
#X text 196 383 DECAY;
#X text 251 383 ENV.AMT;
#X text 130 383 RND.AMT;
#X text 71 383 CUTOFF;
#X obj 334 408 else/knob 50 0 1 0 0 \$0-resonance_gui \$0-resonance_gui_set #606060 #9f9f9f #ffffff 0 0 0 0 1 320 0 0 0;
#X obj 395 408 else/knob 50 0 1 0 0 \$0-resonanceRandAmt_gui \$0-resonanceRandAmt_gui_set #606060 #9f9f9f #ffffff 0 0 0 0 1 320 0 0 0;
#X text 394 383 RND.AMT;
#X text 346 383 RES;
#X obj 334 318 else/knob 50 0 1 0 0 \$0-noise_gui \$0-noise_gui_set #606060 #9f9f9f #ffffff 0 0 0 0 1 320 0 0 0;
#X obj 395 318 else/knob 50 0 1 0 0 \$0-noiseRandAmt_gui \$0-noiseRandAmt_gui_set #606060 #9f9f9f #ffffff 0 0 0 0 1 320 0 0 0;
#X text 394 293 RND.AMT;
#X text 339 293 NOISE;
#X text 79 293 FREQ;
#X obj 192 498 else/knob 50 0 1 0 0 \$0-drive_gui \$0-drive_gui_set #606060 #9f9f9f #ffffff 0 0 0 0 1 320 0 0 0;
#X obj 334 498 else/knob 50 0 1 0 0 \$0-decay_gui \$0-decay_gui_set #606060 #9f9f9f #ffffff 0 0 0 0 1 320 0 0 0;
#X obj 253 498 else/knob 50 0 1 0 0 \$0-amp_gui \$0-amp_gui_set #606060 #9f9f9f #ffffff 0 0 0 0 1 320 0 0 0;
#X text 338 473 DECAY;
#X text 197 473 DRIVE;
#X text 264 473 AMP;
#X obj 395 498 else/knob 50 0 1 0 0 \$0-decayRandAmt_gui \$0-decayRandAmt_gui_set #606060 #9f9f9f #ffffff 0 0 0 0 1 320 0 0 0;
#X text 394 473 RND.AMT;
#X obj 131 498 else/knob 50 0 1 0 0 \$0-crusher_gui \$0-crusher_gui_set #606060 #9f9f9f #ffffff 0 0 0 0 1 320 0 0 0;
#X text 130 473 CRUSHER;
#X obj 70 498 else/knob 50 0 1 0 0 \$0-comb_gui \$0-comb_gui_set #606060 #9f9f9f #ffffff 0 0 0 0 1 320 0 0 0;
#X text 78 473 COMB;
#X obj 70 105 tgl 50 0 \$0-clock_gui \$0-clock_gui_set empty 0 -10 0 12 #606060 #ffffff #000000 0 1;
#X floatatom 131 105 5 0 0 0 - \$0-BPM_gui_set \$0-BPM_gui 0;
#X floatatom 131 136 5 0 0 0 - \$0-BPM_mult_gui_set \$0-BPM_mult_gui 0;
#X obj 395 105 bng 50 250 50 0 \$0-trig_gui \$0-trig_gui_set empty 0 -10 0 12 #606060 #ffffff #000000;
#X obj 192 105 else/knob 50 0 32 0 0 \$0-stepsNum_gui \$0-stepsNum_gui_set #606060 #9f9f9f #ffffff 0 0 33 1 1 320 0 0 0;
#X floatatom 253 120 5 0 32 0 - \$0-stepsNum_gui_set \$0-stepsNum_gui 0;
#X obj 301 105 else/knob 50 0 1 0 0 \$0-skips_gui \$0-skips_gui_set #606060 #9f9f9f #ffffff 0 0 0 0 1 320 0 0 0;
#X text 306 80 SKIPS;
#X text 74 80 CLOCK;
#X text 403 80 TRIG;
#X text 197 80 STEPS;
#X obj 253 186 bng 20 250 50 0 \$0-rw_gui \$0-rw_gui_set empty 0 -10 0 12 #dfdfdf #000000 #000000;
#X obj 253 217 bng 20 250 50 0 \$0-randomBuffer_gui \$0-randomBuffer_gui_set empty 0 -10 0 12 #dfdfdf #000000 #000000;
#X obj 253 248 bng 20 250 50 0 \$0-randomSkips_gui \$0-randomSkips_gui_set empty 0 -10 0 12 #dfdfdf #000000 #000000;
#X text 281 247 RANDOM SKIPS;
#X text 281 216 RANDOM BUFFER;
#X text 281 185 RW STEPS;
#X obj 70 186 tgl 20 0 \$0-wave_gui \$0-wave_gui_set empty 30 10 0 10 #dfdfdf #000000 #000000 0 1;
#X floatatom 402 205 5 0 15 0 - \$0-scale_gui_set \$0-scale_gui 0;
#X text 400 180 SCALE;
#X obj 425 248 bng 20 250 50 0 \$0-reset_gui \$0-reset_gui_set empty 0 -10 0 12 #606060 #ffffff #000000;
#X obj 70 217 tgl 20 0 \$0-filter_gui \$0-filter_gui_set empty 30 10 0 10 #dfdfdf #000000 #000000 0 1;
#X obj 70 248 tgl 20 0 \$0-noiseType_gui \$0-noiseType_gui_set empty 30 10 0 10 #dfdfdf #000000 #000000 0 1;
#X text 97 186 WAVE (SAW/SQR);
#X text 97 216 FILTER (LO/HI);
#X text 97 247 NOISE (WHT/GRAY);
#X text 135 80 BPM;
#X text 143 119 x;
#X text 392 247 RST;
#X obj 990 553 r \$0-clockOut;
#X obj 990 584 outlet CLOCK;
#X obj 758 553 r \$0-startOut;
#X obj 758 584 outlet START;
#X obj 874 553 r \$0-trig_gui;
#X obj 614 553 r \$0-randomBuffer;
#X obj 990 49 inlet CONTROL;
#X obj 51 559 cnv 3 10 3 empty empty empty 20 12 0 12 #000000 #404040 0;
#X obj 454 559 cnv 3 10 3 empty empty empty 20 12 0 12 #9f9f9f #404040 0;
#X obj 151 559 cnv 3 10 3 empty empty empty 20 12 0 12 #9f9f9f #404040 0;
#X obj 252 559 cnv 3 10 3 empty empty empty 20 12 0 12 #9f9f9f #404040 0;
#X obj 353 559 cnv 3 10 3 empty empty empty 20 12 0 12 #9f9f9f #404040 0;
#X obj 51 71 cnv 1 413 1 empty empty empty 20 12 0 12 #000000 #404040 0;
#N canvas 1109 217 399 564 ARRAYS 0;
#N canvas 1055 444 450 250 (subpatch) 0;
#X array \$0-buffer 32 float 2;
#X coords 0 1 32 0 300 200 1 0 0;
#X restore 50 51 graph;
#N canvas 0 50 450 250 (subpatch) 0;
#X array \$0-skips 32 float 2;
#X coords 0 1 32 0 300 200 1 0 0;
#X restore 50 312 graph;
#X restore 526 91 pd ARRAYS;
#N canvas 1430 311 508 175 INIT 0;
#X obj 383 54 loadbang;
#X msg 383 75 \; pd dsp 1;
#X obj 51 54 declare -path abs -path abs/comemo-pd-1.3;
#X connect 0 0 1 0;
#X restore 701 50 pd INIT;
#X obj 614 584 outlet BUFFER;
#X obj 874 584 outlet TRIG;
#N canvas 382 393 886 323 VANILLA_INTERFACE 0;
#X obj 669 232 bng 50 250 50 0 \$0-trig_gui \$0-trig_gui_set empty 0 -10 0 12 #404040 #ffffff #000000;
#X obj 669 42 tgl 50 0 \$0-clock_gui \$0-clock_gui_set empty 0 -10 0 12 #7c7c7c #ffffff #000000 0 1;
#X floatatom 740 42 5 0 0 0 - \$0-BPM_gui_set \$0-BPM_gui 0;
#X floatatom 740 72 5 0 0 0 - \$0-BPM_mult_gui_set \$0-BPM_mult_gui 0;
#X text 785 42 BPM;
#X text 785 72 BPM_MULT;
#X obj 618 120 bng 20 250 50 0 \$0-rw_gui \$0-rw_gui_set empty 0 -10 0 12 #dfdfdf #000000 #000000;
#X obj 618 151 bng 20 250 50 0 \$0-randomBuffer_gui \$0-randomBuffer_gui_set empty 0 -10 0 12 #dfdfdf #000000 #000000;
#X obj 618 182 bng 20 250 50 0 \$0-randomSkips_gui \$0-randomSkips_gui_set empty 0 -10 0 12 #dfdfdf #000000 #000000;
#X text 646 181 RANDOM SKIPS;
#X text 646 150 RANDOM BUFFER;
#X text 646 119 RW STEPS;
#X obj 56 42 hsl 128 19 0 1 0 0 \$0-freq_gui \$0-freq_gui_set FREQ 5 10 0 10 #dfdfdf #000000 #000000 0 1;
#X floatatom 197 42 5 0 127 0 - \$0-note_gui_set \$0-note_gui 0;
#X obj 457 120 tgl 20 0 \$0-wave_gui \$0-wave_gui_set empty 30 10 0 10 #dfdfdf #000000 #000000 0 1;
#X obj 56 72 hsl 128 19 0 1 0 0 \$0-freqDecay_gui \$0-freqDecay_gui_set FREQ_DECAY 5 10 0 10 #dfdfdf #000000 #000000 0 1;
#X floatatom 197 72 5 0 1 0 - \$0-freqDecay_gui_set \$0-freqDecay_gui 0;
#X obj 56 102 hsl 128 19 0 1 0 0 \$0-freqEnvAmt_gui \$0-freqEnvAmt_gui_set FREQ_ENV_AMT 5 10 0 10 #dfdfdf #000000 #000000 0 1;
#X floatatom 197 102 5 0 1 0 - \$0-freqEnvAmt_gui_set \$0-freqEnvAmt_gui 0;
#X obj 56 132 hsl 128 19 0 1 0 0 \$0-freqRandAmt_gui \$0-freqRandAmt_gui_set FREQ_RAND_AMT 5 10 0 10 #dfdfdf #000000 #000000 0 1;
#X floatatom 197 132 5 0 1 0 - \$0-freqRandAmt_gui_set \$0-freqRandAmt_gui 0;
#X obj 258 172 hsl 128 19 0 1 0 0 \$0-resonance_gui \$0-resonance_gui_set RESONANCE 5 10 0 10 #dfdfdf #000000 #000000 0 1;
#X floatatom 399 172 5 0 1 0 - \$0-resonance_gui_set \$0-resonance_gui 0;
#X obj 258 202 hsl 128 19 0 1 0 0 \$0-resonanceRandAmt_gui \$0-resonanceRandAmt_gui_set RESONANCE_RAND_AMT 5 10 0 10 #dfdfdf #000000 #000000 0 1;
#X floatatom 399 202 5 0 1 0 - \$0-resonanceRandAmt_gui_set \$0-resonanceRandAmt_gui 0;
#X obj 258 42 hsl 128 19 0 1 0 0 \$0-cutoff_gui \$0-cutoff_gui_set CUTOFF 5 10 0 10 #dfdfdf #000000 #000000 0 1;
#X floatatom 399 42 5 0 1 0 - \$0-cutoff_gui_set \$0-cutoff_gui 0;
#X obj 258 72 hsl 128 19 0 1 0 0 \$0-cutoffDecay_gui \$0-cutoffDecay_gui_set CUTOFF_DECAY 5 10 0 10 #dfdfdf #000000 #000000 0 1;
#X floatatom 399 72 5 0 1 0 - \$0-cutoffDecay_gui_set \$0-cutoffDecay_gui 0;
#X obj 258 102 hsl 128 19 0 1 0 0 \$0-cutoffEnvAmt_gui \$0-cutoffEnvAmt_gui_set CUTOFF_ENV_AMT 5 10 0 10 #dfdfdf #000000 #000000 0 1;
#X floatatom 399 102 5 0 1 0 - \$0-cutoffEnvAmt_gui_set \$0-cutoffEnvAmt_gui 0;
#X obj 258 132 hsl 128 19 0 1 0 0 \$0-cutoffRandAmt_gui \$0-cutoffRandAmt_gui_set CUTOFF_RAND_AMT 5 10 0 10 #dfdfdf #000000 #000000 0 1;
#X floatatom 399 132 5 0 1 0 - \$0-cutoffRandAmt_gui_set \$0-cutoffRandAmt_gui 0;
#X obj 258 232 hsl 128 19 0 1 0 0 \$0-noise_gui \$0-noise_gui_set NOISE 5 10 0 10 #dfdfdf #000000 #000000 0 1;
#X floatatom 399 232 5 0 1 0 - \$0-noise_gui_set \$0-noise_gui 0;
#X obj 258 262 hsl 128 19 0 1 0 0 \$0-noiseRandAmt_gui \$0-noiseRandAmt_gui_set NOISE_RAND_AMT 5 10 0 10 #dfdfdf #000000 #000000 0 1;
#X floatatom 399 262 5 0 1 0 - \$0-noiseRandAmt_gui_set \$0-noiseRandAmt_gui 0;
#X obj 56 232 hsl 128 19 0 1 0 0 \$0-drive_gui \$0-drive_gui_set DRIVE 5 10 0 10 #dfdfdf #000000 #000000 0 1;
#X floatatom 197 232 5 0 1 0 - \$0-drive_gui_set \$0-drive_gui 0;
#X obj 460 232 hsl 128 19 0 1 0 0 \$0-decay_gui \$0-decay_gui_set DECAY 5 10 0 10 #dfdfdf #000000 #000000 0 1;
#X floatatom 601 232 5 0 1 0 - \$0-decay_gui_set \$0-decay_gui 0;
#X obj 460 42 hsl 128 19 0 1 0 0 \$0-steps_gui \$0-steps_gui_set STEPS 5 10 0 10 #dfdfdf #000000 #000000 0 1;
#X floatatom 601 42 5 0 32 0 - \$0-stepsNum_gui_set \$0-stepsNum_gui 0;
#X obj 460 72 hsl 128 19 0 1 0 0 \$0-skips_gui \$0-skips_gui_set SKIPS 5 10 0 10 #dfdfdf #000000 #000000 0 1;
#X floatatom 601 72 5 0 1 0 - \$0-skips_gui_set \$0-skips_gui 0;
#X floatatom 740 119 5 0 0 0 - \$0-scale_gui_set \$0-scale_gui 0;
#X text 785 119 SCALE;
#X obj 56 262 hsl 128 19 0 1 0 0 \$0-amp_gui \$0-amp_gui_set AMP 5 10 0 10 #dfdfdf #000000 #000000 0 1;
#X floatatom 197 262 5 0 1 0 - \$0-amp_gui_set \$0-amp_gui 0;
#X obj 740 262 bng 20 250 50 0 \$0-reset_gui \$0-reset_gui_set empty 0 -10 0 12 #000000 #ffffff #000000;
#X text 768 262 RESET;
#X obj 460 262 hsl 128 19 0 1 0 0 \$0-decayRandAmt_gui \$0-decayRandAmt_gui_set DECAY_RAND_AMT 5 10 0 10 #dfdfdf #000000 #000000 0 1;
#X floatatom 601 262 5 0 1 0 - \$0-noiseRandAmt_gui_set \$0-noiseRandAmt_gui 0;
#X obj 457 151 tgl 20 0 \$0-filter_gui \$0-filter_gui_set empty 30 10 0 10 #dfdfdf #000000 #000000 0 1;
#X obj 56 202 hsl 128 19 0 1 0 0 \$0-crusher_gui \$0-crusher_gui_set CRUSHER 5 10 0 10 #dfdfdf #000000 #000000 0 1;
#X floatatom 197 202 5 0 1 0 - \$0-crusher_gui_set \$0-crusher_gui 0;
#X obj 56 172 hsl 128 19 0 1 0 0 \$0-comb_gui \$0-comb_gui_set COMB 5 10 0 10 #dfdfdf #000000 #000000 0 1;
#X floatatom 197 172 5 0 1 0 - \$0-comb_gui_set \$0-comb_gui 0;
#X obj 457 182 tgl 20 0 \$0-noiseType_gui \$0-noiseType_gui_set empty 30 10 0 10 #dfdfdf #000000 #000000 0 1;
#X text 484 120 WAVE (SAW/SQR);
#X text 484 150 FILTER (LO/HI);
#X text 484 181 NOISE (WHT/GRAY);
#X restore 874 131 pd VANILLA_INTERFACE;
#N canvas 639 248 475 252 README 0;
#X text 64 105 Copyleft 2025 Bruno Faria Rohde – GPLV3 license – http://www.gnu.org/licenses/gpl.txt;
#X text 64 75 https://github.com/brunorohde/FETXT;
#X text 64 195 Depende da biblioteca externa ELSE;
#X text 64 155 ---;
#X text 64 35 --- FETXT - V.1.0 ---;
#X restore 701 91 pd README;
#X connect 2 0 0 0;
#X connect 2 0 16 0;
#X connect 3 0 4 0;
#X connect 4 0 5 0;
#X connect 6 0 7 0;
#X connect 6 0 20 1;
#X connect 7 0 10 0;
#X connect 8 0 20 0;
#X connect 9 0 18 0;
#X connect 10 0 8 0;
#X connect 13 0 12 0;
#X connect 14 0 2 0;
#X connect 15 0 14 0;
#X connect 17 0 0 0;
#X connect 18 0 15 0;
#X connect 19 0 9 0;
#X connect 20 0 19 0;
#X connect 21 0 10 1;
#X connect 89 0 90 0;
#X connect 91 0 92 0;
#X connect 93 0 105 0;
#X connect 94 0 104 0;
#X connect 95 0 12 0;
#X coords 0 -1 1 1 415 513 1 50 50;
